G04 DipTrace 2.4.0.2*
%INBottom.gbr*%
%MOIN*%
%ADD14C,0.013*%
%ADD15C,0.089*%
%ADD16C,0.0591*%
%ADD17C,0.0591*%
%ADD18C,0.04*%
%FSLAX44Y44*%
G04*
G70*
G90*
G75*
G01*
%LNBottom*%
%LPD*%
X16425Y26047D2*
D14*
X15173Y27299D1*
Y31134D1*
X8847Y26047D2*
X7693Y27200D1*
Y31134D1*
X8847Y18566D2*
X7693Y19720D1*
Y23654D1*
X8847Y11184D2*
X7776Y12255D1*
Y16173D1*
Y8693D2*
X9563D1*
Y9806D1*
X8847D1*
X17126Y8661D2*
D3*
X16425Y9806D2*
X15433D1*
X15173Y9547D1*
Y8693D1*
X17126Y8661D2*
X16870D1*
X16425Y9106D1*
Y9806D1*
X16327Y11086D2*
X15173Y12240D1*
Y16173D1*
X16425Y18468D2*
X15173Y19720D1*
Y23654D1*
X23807Y18566D2*
X22654Y19720D1*
Y23654D1*
X23709Y26047D2*
X22654Y27102D1*
Y31134D1*
X23807Y11086D2*
X22654Y12240D1*
Y16173D1*
Y8693D2*
Y9448D1*
X22913Y9708D1*
X23807D1*
X30134Y8693D2*
Y9547D1*
X30394Y9806D1*
X31288D1*
X31386Y11086D2*
X30134Y12338D1*
Y16173D1*
X31386Y18566D2*
X30134Y19818D1*
Y23654D1*
X31288Y26047D2*
X30134Y27200D1*
Y31134D1*
X38768Y26047D2*
X37614Y27200D1*
Y31134D1*
X38866Y18566D2*
X37614Y19818D1*
Y23654D1*
X38866Y11086D2*
X37614Y12338D1*
Y16173D1*
X38549Y8693D2*
X39258D1*
X39518Y8953D1*
Y9806D1*
X38768D1*
X46347Y26047D2*
X45094Y27299D1*
Y31134D1*
X46347Y18566D2*
X45094Y19818D1*
Y23654D1*
X46248Y11086D2*
X45094Y12240D1*
Y16173D1*
Y8693D2*
Y10124D1*
X45354Y10384D1*
X46250D1*
X53729Y11184D2*
X52575Y12338D1*
Y16173D1*
X53632Y25984D2*
X52575Y27041D1*
Y31134D1*
X53681Y17421D2*
X53000Y18102D1*
Y18929D1*
X52575Y19354D1*
Y23654D1*
X61209Y26047D2*
X60055Y27200D1*
Y31134D1*
X61161Y17323D2*
Y17813D1*
X61000Y17974D1*
Y18929D1*
X60055Y19874D1*
Y23654D1*
X61209Y11086D2*
X60055Y12240D1*
Y16173D1*
Y8693D2*
Y9645D1*
X60315Y9905D1*
X61209D1*
X68788Y9806D2*
Y8953D1*
X68528Y8693D1*
X67535D1*
X68788Y11086D2*
X67535Y12338D1*
Y16173D1*
X68788Y18665D2*
X67535Y19917D1*
Y23654D1*
X68591Y26145D2*
X67535Y27200D1*
Y31134D1*
X76170Y26047D2*
X75016Y27200D1*
Y31134D1*
X76268Y18566D2*
X75016Y19818D1*
Y23654D1*
X76170Y11086D2*
X75016Y12240D1*
Y16173D1*
X76170Y9806D2*
Y8953D1*
X75910Y8693D1*
X75016D1*
X83748Y9806D2*
Y8953D1*
X83488Y8693D1*
X82496D1*
X83748Y11184D2*
X82496Y12437D1*
Y16173D1*
X83748Y18566D2*
X82496Y19818D1*
Y23654D1*
X83748Y26145D2*
X82496Y27397D1*
Y31134D1*
X91022Y26047D2*
X89976Y27092D1*
Y31134D1*
X91081Y18566D2*
X89976Y19671D1*
Y23654D1*
X91081Y11184D2*
X89976Y12289D1*
Y16173D1*
X91081Y9905D2*
Y8953D1*
X90821Y8693D1*
X89976D1*
X55000Y17911D2*
Y24161D1*
X54510Y24652D1*
X49705Y17421D2*
Y19056D1*
X40877Y17941D2*
X41502Y18566D1*
X42370D1*
Y19056D1*
X41745D1*
X57233Y11086D2*
X56000Y12318D1*
Y24161D1*
X55510Y24652D1*
X57233Y9905D2*
X54220Y12917D1*
Y17801D1*
X54000Y18022D1*
Y19089D1*
X54105Y19194D1*
Y23318D1*
X54000Y23423D1*
Y24882D1*
X54260Y25142D1*
X56020D1*
X56510Y24652D1*
X5193Y30134D2*
D3*
X5276Y15173D2*
X5305Y15143D1*
Y14246D1*
X5361Y14191D1*
Y9099D1*
X5276Y9014D1*
Y7693D1*
Y15173D2*
D3*
X5193Y22654D2*
X5462Y22385D1*
Y17365D1*
X5276Y17179D1*
Y15173D1*
X5193Y22654D2*
D3*
Y30134D2*
X5223Y30104D1*
Y29303D1*
X5361Y29165D1*
Y24564D1*
X5193Y24396D1*
Y22654D1*
X12673Y30134D2*
D3*
Y15173D2*
X12703Y15143D1*
Y14392D1*
X12939Y14155D1*
Y9016D1*
X12673Y8750D1*
Y7693D1*
Y15173D2*
D3*
Y22654D2*
X12703Y22624D1*
Y21640D1*
X12939Y21404D1*
Y16243D1*
X12673Y15977D1*
Y15173D1*
Y22654D2*
D3*
Y30134D2*
X12703Y30104D1*
Y29319D1*
X12939Y29082D1*
Y24102D1*
X12673Y23836D1*
Y22654D1*
X20154Y30134D2*
D3*
Y15173D2*
X20183Y15143D1*
Y14139D1*
X20321Y14001D1*
Y9042D1*
X20154Y8874D1*
Y7693D1*
Y15173D2*
D3*
Y22654D2*
X20183Y22624D1*
Y21586D1*
X20321Y21448D1*
Y17256D1*
X20154Y17089D1*
Y15173D1*
Y22654D2*
D3*
Y30134D2*
X20183Y30104D1*
Y29254D1*
X20223Y29214D1*
Y25331D1*
X20154Y25262D1*
Y22654D1*
X27634Y7693D2*
D3*
Y30134D2*
D3*
Y22654D2*
Y24647D1*
X27801Y24815D1*
Y29165D1*
X27664Y29303D1*
Y30104D1*
X27634Y30134D1*
Y22654D2*
D3*
Y15173D2*
Y16427D1*
X27900Y16693D1*
Y21636D1*
X27664Y21872D1*
Y22624D1*
X27634Y22654D1*
Y15173D2*
D3*
Y7693D2*
X27365Y7962D1*
Y8708D1*
X26669Y9404D1*
Y12696D1*
X27664Y13691D1*
Y15143D1*
X27634Y15173D1*
X35114Y7693D2*
Y8878D1*
X35380Y9144D1*
Y14083D1*
X35144Y14320D1*
Y15143D1*
X35114Y15173D1*
Y30134D2*
D3*
Y22654D2*
Y25213D1*
X35282Y25380D1*
Y29100D1*
X35144Y29238D1*
Y30104D1*
X35114Y30134D1*
Y22654D2*
D3*
Y15173D2*
Y16769D1*
X35380Y17035D1*
Y21636D1*
X35144Y21872D1*
Y22624D1*
X35114Y22654D1*
Y15173D2*
D3*
X42594Y30134D2*
D3*
Y15173D2*
X42624Y15143D1*
Y14343D1*
X42764Y14204D1*
Y9718D1*
X42594Y9549D1*
Y7693D1*
Y15173D2*
D3*
Y22654D2*
X42624Y22624D1*
Y21872D1*
X42861Y21636D1*
Y17831D1*
X42594Y17565D1*
Y15173D1*
Y22654D2*
D3*
Y30134D2*
X42624Y30104D1*
Y29352D1*
X42861Y29116D1*
Y24790D1*
X42594Y24524D1*
Y22654D1*
X56395Y15173D2*
Y17553D1*
X56655Y17813D1*
X58671D1*
X59510Y18652D1*
X50075Y30134D2*
D3*
Y15173D2*
X50105Y15143D1*
Y14343D1*
X50244Y14204D1*
Y9276D1*
X50075Y9106D1*
Y7693D1*
Y15173D2*
D3*
Y22654D2*
X50105Y22624D1*
Y21799D1*
X50195Y21709D1*
Y16680D1*
X50075Y16560D1*
Y15173D1*
Y22654D2*
D3*
Y30134D2*
X50105Y30104D1*
Y29255D1*
X50146Y29214D1*
Y24975D1*
X50075Y24905D1*
Y22654D1*
X57555Y30134D2*
D3*
Y15173D2*
X57585Y15143D1*
Y14043D1*
X57723Y13905D1*
Y9417D1*
X57555Y9249D1*
Y7693D1*
Y15173D2*
D3*
X60510Y18652D2*
X58671Y16813D1*
X57815D1*
X57555Y16553D1*
Y15173D1*
Y22654D2*
X57585Y22624D1*
Y21576D1*
X60510Y18652D1*
X57555Y22654D2*
D3*
Y30134D2*
X57585Y30104D1*
Y29402D1*
X58000Y28987D1*
Y24124D1*
X57555Y23679D1*
Y22654D1*
X65035Y30134D2*
D3*
Y7693D2*
Y8473D1*
X65301Y8739D1*
Y14155D1*
X65065Y14391D1*
Y15143D1*
X65035Y15173D1*
Y22654D2*
X65065Y22624D1*
Y21641D1*
X65301Y21405D1*
Y18161D1*
X65042D1*
X62000D1*
X61510Y18652D1*
X65035Y22654D2*
D3*
Y30134D2*
X65065Y30104D1*
Y29210D1*
X65105Y29170D1*
Y24027D1*
X65035Y23958D1*
Y22654D1*
Y15173D2*
Y16928D1*
X65301Y17194D1*
Y17902D1*
X65042Y18161D1*
X65035Y15173D2*
D3*
X72516Y30134D2*
D3*
Y15173D2*
X72546Y15143D1*
Y14293D1*
X72683Y14155D1*
Y9140D1*
X72516Y8973D1*
Y7693D1*
Y15173D2*
D3*
Y22654D2*
X72546Y22624D1*
Y21722D1*
X72782Y21485D1*
Y17400D1*
X72516Y17134D1*
Y15173D1*
Y22654D2*
D3*
Y30134D2*
X72546Y30104D1*
Y28976D1*
X72683Y28838D1*
Y25380D1*
X72516Y25213D1*
Y22654D1*
X79996Y7693D2*
Y8585D1*
X80262Y8851D1*
Y13827D1*
X80026Y14063D1*
Y15143D1*
X79996Y15173D1*
Y30134D2*
D3*
Y22654D2*
Y25198D1*
X80262Y25464D1*
Y28879D1*
X80026Y29115D1*
Y30104D1*
X79996Y30134D1*
Y22654D2*
D3*
Y15173D2*
Y16608D1*
X80262Y16874D1*
Y21636D1*
X80026Y21872D1*
Y22624D1*
X79996Y22654D1*
Y15173D2*
D3*
X87476Y30134D2*
D3*
Y15173D2*
X87506Y15143D1*
Y14318D1*
X87595Y14229D1*
Y9214D1*
X87476Y9096D1*
Y7693D1*
Y15173D2*
D3*
Y22654D2*
X87506Y22624D1*
Y21750D1*
X87595Y21662D1*
Y16986D1*
X87476Y16868D1*
Y15173D1*
Y22654D2*
D3*
Y30134D2*
X87536Y30075D1*
Y24107D1*
X87476Y24047D1*
Y22654D1*
X52575Y8693D2*
Y9681D1*
X52835Y9941D1*
X53730D1*
D18*
X49705Y19056D3*
X41745D3*
X40877Y17941D3*
X55000Y17911D3*
X56395Y15173D3*
D15*
X7693Y31134D3*
X5193Y30134D3*
X15173Y31134D3*
X12673Y30134D3*
X22654Y31134D3*
X20154Y30134D3*
X30134Y31134D3*
X27634Y30134D3*
X37614Y31134D3*
X35114Y30134D3*
X45094Y31134D3*
X42594Y30134D3*
X52575Y31134D3*
X50075Y30134D3*
X60055Y31134D3*
X57555Y30134D3*
X67535Y31134D3*
X65035Y30134D3*
X75016Y31134D3*
X72516Y30134D3*
X82496Y31134D3*
X79996Y30134D3*
X89976Y31134D3*
X87476Y30134D3*
X7693Y23654D3*
X5193Y22654D3*
X15173Y23654D3*
X12673Y22654D3*
X22654Y23654D3*
X20154Y22654D3*
X30134Y23654D3*
X27634Y22654D3*
X37614Y23654D3*
X35114Y22654D3*
X45094Y23654D3*
X42594Y22654D3*
X52575Y23654D3*
X50075Y22654D3*
X60055Y23654D3*
X57555Y22654D3*
X67535Y23654D3*
X65035Y22654D3*
X75016Y23654D3*
X72516Y22654D3*
X82496Y23654D3*
X79996Y22654D3*
X89976Y23654D3*
X87476Y22654D3*
X7776Y16173D3*
X5276Y15173D3*
X15173Y16173D3*
X12673Y15173D3*
X22654Y16173D3*
X20154Y15173D3*
X30134Y16173D3*
X27634Y15173D3*
X37614Y16173D3*
X35114Y15173D3*
X45094Y16173D3*
X42594Y15173D3*
X52575Y16173D3*
X50075Y15173D3*
X60055Y16173D3*
X57555Y15173D3*
X67535Y16173D3*
X65035Y15173D3*
X75016Y16173D3*
X72516Y15173D3*
X82496Y16173D3*
X79996Y15173D3*
X89976Y16173D3*
X87476Y15173D3*
X7776Y8693D3*
X5276Y7693D3*
X15173Y8693D3*
X12673Y7693D3*
X22654Y8693D3*
X20154Y7693D3*
X30134Y8693D3*
X27634Y7693D3*
X37614Y8693D3*
X35114Y7693D3*
D16*
X52510Y18652D3*
X53510D3*
X54510D3*
X55510D3*
X56510D3*
X57510D3*
X58510D3*
X59510D3*
X60510D3*
X61510D3*
X62510D3*
X63510D3*
Y19652D3*
Y20652D3*
Y21652D3*
Y22652D3*
Y23652D3*
Y24652D3*
X62510D3*
X61510D3*
X60510D3*
X59510D3*
X58510D3*
X57510D3*
X56510D3*
X55510D3*
X54510D3*
X53510D3*
X52510D3*
X56510Y19652D3*
Y23652D3*
D15*
X60055Y8693D3*
X57555Y7693D3*
X67535Y8693D3*
X65035Y7693D3*
X75016Y8693D3*
X72516Y7693D3*
X82496Y8693D3*
X79996Y7693D3*
X89976Y8693D3*
X87476Y7693D3*
G36*
X86750Y26342D2*
X87341D1*
Y25751D1*
X86750D1*
Y26342D1*
G37*
D17*
X91022Y26047D3*
G36*
X80067Y25850D2*
X79477D1*
Y26440D1*
X80067D1*
Y25850D1*
G37*
D17*
X83748Y26145D3*
G36*
X72488Y25751D2*
X71898D1*
Y26342D1*
X72488D1*
Y25751D1*
G37*
D17*
X76170Y26047D3*
G36*
X64910Y25850D2*
X64319D1*
Y26440D1*
X64910D1*
Y25850D1*
G37*
D17*
X68591Y26145D3*
G36*
X57528Y25751D2*
X56937D1*
Y26342D1*
X57528D1*
Y25751D1*
G37*
D17*
X61209Y26047D3*
G36*
X49951Y25689D2*
X49360D1*
Y26280D1*
X49951D1*
Y25689D1*
G37*
D17*
X53632Y25984D3*
G36*
X42666Y25751D2*
X42075D1*
Y26342D1*
X42666D1*
Y25751D1*
G37*
D17*
X46347Y26047D3*
G36*
X35087Y25751D2*
X34496D1*
Y26342D1*
X35087D1*
Y25751D1*
G37*
D17*
X38768Y26047D3*
G36*
X27607Y25751D2*
X27016D1*
Y26342D1*
X27607D1*
Y25751D1*
G37*
D17*
X31288Y26047D3*
G36*
X20028Y25751D2*
X19437D1*
Y26342D1*
X20028D1*
Y25751D1*
G37*
D17*
X23709Y26047D3*
G36*
X12744Y25751D2*
X12154D1*
Y26342D1*
X12744D1*
Y25751D1*
G37*
D17*
X16425Y26047D3*
G36*
X5166Y25751D2*
X4575D1*
Y26342D1*
X5166D1*
Y25751D1*
G37*
D17*
X8847Y26047D3*
G36*
X5166Y18271D2*
X4575D1*
Y18862D1*
X5166D1*
Y18271D1*
G37*
D17*
X8847Y18566D3*
G36*
X12744Y18173D2*
X12154D1*
Y18763D1*
X12744D1*
Y18173D1*
G37*
D17*
X16425Y18468D3*
G36*
X20126Y18271D2*
X19536D1*
Y18862D1*
X20126D1*
Y18271D1*
G37*
D17*
X23807Y18566D3*
G36*
X27705Y18271D2*
X27114D1*
Y18862D1*
X27705D1*
Y18271D1*
G37*
D17*
X31386Y18566D3*
G36*
X35185Y18271D2*
X34595D1*
Y18862D1*
X35185D1*
Y18271D1*
G37*
D17*
X38866Y18566D3*
G36*
X42666Y18271D2*
X42075D1*
Y18862D1*
X42666D1*
Y18271D1*
G37*
D17*
X46347Y18566D3*
G36*
X50048Y10889D2*
X49457D1*
Y11480D1*
X50048D1*
Y10889D1*
G37*
D17*
X53729Y11184D3*
G36*
X57480Y17028D2*
X56890D1*
Y17618D1*
X57480D1*
Y17028D1*
G37*
D17*
X61161Y17323D3*
G36*
X65107Y18369D2*
X64516D1*
Y18960D1*
X65107D1*
Y18369D1*
G37*
D17*
X68788Y18665D3*
G36*
X72587Y18271D2*
X71996D1*
Y18862D1*
X72587D1*
Y18271D1*
G37*
D17*
X76268Y18566D3*
G36*
X80067Y18271D2*
X79477D1*
Y18862D1*
X80067D1*
Y18271D1*
G37*
D17*
X83748Y18566D3*
G36*
X87400Y18271D2*
X86809D1*
Y18862D1*
X87400D1*
Y18271D1*
G37*
D17*
X91081Y18566D3*
G36*
X87400Y10889D2*
X86809D1*
Y11480D1*
X87400D1*
Y10889D1*
G37*
D17*
X91081Y11184D3*
G36*
X80067Y10889D2*
X79477D1*
Y11480D1*
X80067D1*
Y10889D1*
G37*
D17*
X83748Y11184D3*
G36*
X72488Y10791D2*
X71898D1*
Y11381D1*
X72488D1*
Y10791D1*
G37*
D17*
X76170Y11086D3*
G36*
X65107Y10791D2*
X64516D1*
Y11381D1*
X65107D1*
Y10791D1*
G37*
D17*
X68788Y11086D3*
G36*
X57528Y10791D2*
X56937D1*
Y11381D1*
X57528D1*
Y10791D1*
G37*
D17*
X61209Y11086D3*
G36*
X50000Y17126D2*
X49409D1*
Y17717D1*
X50000D1*
Y17126D1*
G37*
D17*
X53681Y17421D3*
G36*
X42567Y10791D2*
X41977D1*
Y11381D1*
X42567D1*
Y10791D1*
G37*
D17*
X46248Y11086D3*
G36*
X35185Y10791D2*
X34595D1*
Y11381D1*
X35185D1*
Y10791D1*
G37*
D17*
X38866Y11086D3*
G36*
X27705Y10791D2*
X27114D1*
Y11381D1*
X27705D1*
Y10791D1*
G37*
D17*
X31386Y11086D3*
G36*
X20126Y10791D2*
X19536D1*
Y11381D1*
X20126D1*
Y10791D1*
G37*
D17*
X23807Y11086D3*
G36*
X12646Y10791D2*
X12055D1*
Y11381D1*
X12646D1*
Y10791D1*
G37*
D17*
X16327Y11086D3*
G36*
X5166Y10889D2*
X4575D1*
Y11480D1*
X5166D1*
Y10889D1*
G37*
D17*
X8847Y11184D3*
G36*
X87400Y9610D2*
X86809D1*
Y10200D1*
X87400D1*
Y9610D1*
G37*
D17*
X91081Y9905D3*
G36*
X80067Y9511D2*
X79477D1*
Y10102D1*
X80067D1*
Y9511D1*
G37*
D17*
X83748Y9806D3*
G36*
X72488Y9511D2*
X71898D1*
Y10102D1*
X72488D1*
Y9511D1*
G37*
D17*
X76170Y9806D3*
G36*
X65107Y9511D2*
X64516D1*
Y10102D1*
X65107D1*
Y9511D1*
G37*
D17*
X68788Y9806D3*
G36*
X57528Y9610D2*
X56937D1*
Y10200D1*
X57528D1*
Y9610D1*
G37*
D17*
X61209Y9905D3*
G36*
X42569Y10089D2*
X41978D1*
Y10679D1*
X42569D1*
Y10089D1*
G37*
D17*
X46250Y10384D3*
G36*
X35087Y9511D2*
X34496D1*
Y10102D1*
X35087D1*
Y9511D1*
G37*
D17*
X38768Y9806D3*
G36*
X27607Y9511D2*
X27016D1*
Y10102D1*
X27607D1*
Y9511D1*
G37*
D17*
X31288Y9806D3*
G36*
X20126Y9413D2*
X19536D1*
Y10003D1*
X20126D1*
Y9413D1*
G37*
D17*
X23807Y9708D3*
G36*
X12744Y9511D2*
X12154D1*
Y10102D1*
X12744D1*
Y9511D1*
G37*
D17*
X16425Y9806D3*
G36*
X5166Y9511D2*
X4575D1*
Y10102D1*
X5166D1*
Y9511D1*
G37*
D17*
X8847Y9806D3*
D15*
X38549Y8693D3*
X36049Y7693D3*
X59120Y8693D3*
X56620Y7693D3*
X28264Y8693D3*
X25764Y7693D3*
X18913Y8693D3*
X16413Y7693D3*
X9563Y8693D3*
X7063Y7693D3*
X17126Y8661D3*
X14626Y7661D3*
X52575Y8693D3*
X50075Y7693D3*
X45094Y8693D3*
X42594Y7693D3*
G36*
X50049Y9646D2*
X49459D1*
Y10236D1*
X50049D1*
Y9646D1*
G37*
D17*
X53730Y9941D3*
D15*
X48835Y8693D3*
X46335Y7693D3*
M02*
