G04 DipTrace 2.4.0.2*
%INBottomAssy.gbr*%
%MOIN*%
%ADD32C,0.0077*%
%ADD34C,0.0124*%
%ADD35C,0.0062*%
%FSLAX44Y44*%
G04*
G70*
G90*
G75*
G01*
%LNBotAssy*%
%LPD*%
X49382Y15920D2*
D34*
X49038D1*
X48923Y15958D1*
X48885Y15997D1*
X48847Y16073D1*
Y16188D1*
X48885Y16264D1*
X48923Y16303D1*
X49038Y16341D1*
X49382D1*
Y15537D1*
X48599Y16341D2*
Y15537D1*
X47893Y16073D2*
Y15537D1*
Y15958D2*
X47970Y16035D1*
X48046Y16073D1*
X48161D1*
X48237Y16035D1*
X48314Y15958D1*
X48352Y15843D1*
Y15767D1*
X48314Y15652D1*
X48237Y15576D1*
X48161Y15537D1*
X48046D1*
X47970Y15576D1*
X47893Y15652D1*
X47646Y16073D2*
Y15537D1*
Y15920D2*
X47532Y16035D1*
X47455Y16073D1*
X47340D1*
X47264Y16035D1*
X47226Y15920D1*
Y15537D1*
X46519Y15958D2*
X46596Y16035D1*
X46673Y16073D1*
X46787D1*
X46864Y16035D1*
X46940Y15958D1*
X46979Y15843D1*
Y15767D1*
X46940Y15652D1*
X46864Y15576D1*
X46787Y15537D1*
X46673D1*
X46596Y15576D1*
X46519Y15652D1*
X46272Y16341D2*
Y15537D1*
X45889Y16073D2*
X46272Y15690D1*
X46119Y15843D2*
X45851Y15537D1*
X49182Y15262D2*
D32*
Y14760D1*
X48943Y15094D2*
X49182Y14855D1*
X49086Y14951D2*
X48919Y14760D1*
X48765Y14951D2*
X48478D1*
Y14999D1*
X48502Y15047D1*
X48525Y15071D1*
X48573Y15094D1*
X48645D1*
X48693Y15071D1*
X48741Y15023D1*
X48765Y14951D1*
Y14903D1*
X48741Y14831D1*
X48693Y14784D1*
X48645Y14760D1*
X48573D1*
X48525Y14784D1*
X48478Y14831D1*
X48299Y15094D2*
X48156Y14760D1*
X48203Y14664D1*
X48252Y14616D1*
X48299Y14592D1*
X48323D1*
X48012Y15094D2*
X48156Y14760D1*
X47858Y15262D2*
Y14760D1*
Y15023D2*
X47810Y15071D1*
X47762Y15094D1*
X47690D1*
X47643Y15071D1*
X47595Y15023D1*
X47571Y14951D1*
Y14903D1*
X47595Y14831D1*
X47643Y14784D1*
X47690Y14760D1*
X47762D1*
X47810Y14784D1*
X47858Y14831D1*
X47297Y15094D2*
X47345Y15071D1*
X47393Y15023D1*
X47417Y14951D1*
Y14903D1*
X47393Y14831D1*
X47345Y14784D1*
X47297Y14760D1*
X47225D1*
X47177Y14784D1*
X47130Y14831D1*
X47105Y14903D1*
Y14951D1*
X47130Y15023D1*
X47177Y15071D1*
X47225Y15094D1*
X47297D1*
X46664D2*
Y14760D1*
Y15023D2*
X46712Y15071D1*
X46760Y15094D1*
X46831D1*
X46879Y15071D1*
X46927Y15023D1*
X46951Y14951D1*
Y14903D1*
X46927Y14831D1*
X46879Y14784D1*
X46831Y14760D1*
X46760D1*
X46712Y14784D1*
X46664Y14831D1*
X46510Y15094D2*
Y14760D1*
Y14951D2*
X46485Y15023D1*
X46438Y15071D1*
X46390Y15094D1*
X46318D1*
X45877Y15262D2*
Y14760D1*
Y15023D2*
X45924Y15071D1*
X45972Y15094D1*
X46044D1*
X46092Y15071D1*
X46140Y15023D1*
X46164Y14951D1*
Y14903D1*
X46140Y14831D1*
X46092Y14784D1*
X46044Y14760D1*
X45972D1*
X45924Y14784D1*
X45877Y14831D1*
X48114Y14209D2*
X47970Y13874D1*
X47827Y14209D1*
X47673Y14280D2*
X47625Y14304D1*
X47553Y14376D1*
Y13874D1*
X47375Y13922D2*
X47398Y13897D1*
X47375Y13874D1*
X47350Y13897D1*
X47375Y13922D1*
X47052Y14376D2*
X47124Y14352D1*
X47172Y14280D1*
X47196Y14161D1*
Y14089D1*
X47172Y13969D1*
X47124Y13897D1*
X47052Y13874D1*
X47005D1*
X46933Y13897D1*
X46885Y13969D1*
X46861Y14089D1*
Y14161D1*
X46885Y14280D1*
X46933Y14352D1*
X47005Y14376D1*
X47052D1*
X46885Y14280D2*
X47172Y13969D1*
X49762Y13265D2*
D35*
X49589D1*
X49532Y13284D1*
X49513Y13303D1*
X49494Y13341D1*
Y13398D1*
X49513Y13437D1*
X49532Y13456D1*
X49589Y13475D1*
X49762D1*
Y13073D1*
X49370Y13475D2*
X49351Y13456D1*
X49332Y13475D1*
X49351Y13494D1*
X49370Y13475D1*
X49351Y13341D2*
Y13073D1*
X49208Y13226D2*
X48979D1*
Y13265D1*
X48998Y13303D1*
X49017Y13322D1*
X49055Y13341D1*
X49113D1*
X49151Y13322D1*
X49189Y13284D1*
X49208Y13226D1*
Y13188D1*
X49189Y13131D1*
X49151Y13093D1*
X49113Y13073D1*
X49055D1*
X49017Y13093D1*
X48979Y13131D1*
X48855Y13341D2*
Y13073D1*
Y13226D2*
X48836Y13284D1*
X48798Y13322D1*
X48759Y13341D1*
X48702D1*
X48578D2*
Y13073D1*
Y13226D2*
X48559Y13284D1*
X48521Y13322D1*
X48482Y13341D1*
X48425D1*
X48301Y13226D2*
X48072D1*
Y13265D1*
X48091Y13303D1*
X48110Y13322D1*
X48148Y13341D1*
X48206D1*
X48244Y13322D1*
X48282Y13284D1*
X48301Y13226D1*
Y13188D1*
X48282Y13131D1*
X48244Y13093D1*
X48206Y13073D1*
X48148D1*
X48110Y13093D1*
X48072Y13131D1*
X47273Y13379D2*
X47292Y13418D1*
X47330Y13456D1*
X47368Y13475D1*
X47445D1*
X47483Y13456D1*
X47521Y13418D1*
X47541Y13379D1*
X47560Y13322D1*
Y13226D1*
X47541Y13169D1*
X47521Y13131D1*
X47483Y13093D1*
X47445Y13073D1*
X47368D1*
X47330Y13093D1*
X47292Y13131D1*
X47273Y13169D1*
X46920Y13341D2*
Y13073D1*
Y13284D2*
X46958Y13322D1*
X46996Y13341D1*
X47053D1*
X47092Y13322D1*
X47130Y13284D1*
X47149Y13226D1*
Y13188D1*
X47130Y13131D1*
X47092Y13093D1*
X47053Y13073D1*
X46996D1*
X46958Y13093D1*
X46920Y13131D1*
X46796Y13341D2*
Y13073D1*
Y13226D2*
X46777Y13284D1*
X46739Y13322D1*
X46700Y13341D1*
X46643D1*
X46519D2*
Y13073D1*
Y13226D2*
X46500Y13284D1*
X46462Y13322D1*
X46423Y13341D1*
X46366D1*
X46242Y13475D2*
X46223Y13456D1*
X46204Y13475D1*
X46223Y13494D1*
X46242Y13475D1*
X46223Y13341D2*
Y13073D1*
X46080Y13226D2*
X45851D1*
Y13265D1*
X45870Y13303D1*
X45889Y13322D1*
X45927Y13341D1*
X45985D1*
X46023Y13322D1*
X46061Y13284D1*
X46080Y13226D1*
Y13188D1*
X46061Y13131D1*
X46023Y13093D1*
X45985Y13073D1*
X45927D1*
X45889Y13093D1*
X45851Y13131D1*
X45727Y13341D2*
Y13073D1*
Y13226D2*
X45708Y13284D1*
X45670Y13322D1*
X45631Y13341D1*
X45574D1*
X49533Y12835D2*
Y12529D1*
X49552Y12472D1*
X49571Y12453D1*
X49609Y12433D1*
X49648D1*
X49686Y12453D1*
X49705Y12472D1*
X49724Y12529D1*
Y12567D1*
X49180Y12701D2*
Y12433D1*
Y12644D2*
X49218Y12682D1*
X49256Y12701D1*
X49313D1*
X49352Y12682D1*
X49390Y12644D1*
X49409Y12586D1*
Y12548D1*
X49390Y12491D1*
X49352Y12453D1*
X49313Y12433D1*
X49256D1*
X49218Y12453D1*
X49180Y12491D1*
X48826Y12644D2*
X48865Y12682D1*
X48903Y12701D1*
X48960D1*
X48999Y12682D1*
X49037Y12644D1*
X49056Y12586D1*
Y12548D1*
X49037Y12491D1*
X48999Y12453D1*
X48960Y12433D1*
X48903D1*
X48865Y12453D1*
X48826Y12491D1*
X48703Y12835D2*
Y12433D1*
X48511Y12701D2*
X48703Y12510D1*
X48626Y12586D2*
X48492Y12433D1*
X47980Y12835D2*
Y12433D1*
X47712Y12835D2*
Y12433D1*
X47980Y12644D2*
X47712D1*
X47589Y12701D2*
Y12510D1*
X47570Y12453D1*
X47531Y12433D1*
X47474D1*
X47436Y12453D1*
X47378Y12510D1*
Y12701D2*
Y12433D1*
X47255Y12701D2*
Y12433D1*
Y12625D2*
X47197Y12682D1*
X47159Y12701D1*
X47102D1*
X47063Y12682D1*
X47044Y12625D1*
Y12433D1*
Y12625D2*
X46987Y12682D1*
X46948Y12701D1*
X46891D1*
X46853Y12682D1*
X46833Y12625D1*
Y12433D1*
X46710Y12835D2*
Y12433D1*
Y12644D2*
X46671Y12682D1*
X46633Y12701D1*
X46576D1*
X46538Y12682D1*
X46499Y12644D1*
X46480Y12586D1*
Y12548D1*
X46499Y12491D1*
X46538Y12453D1*
X46576Y12433D1*
X46633D1*
X46671Y12453D1*
X46710Y12491D1*
X46357Y12586D2*
X46127D1*
Y12625D1*
X46146Y12663D1*
X46165Y12682D1*
X46204Y12701D1*
X46261D1*
X46299Y12682D1*
X46338Y12644D1*
X46357Y12586D1*
Y12548D1*
X46338Y12491D1*
X46299Y12453D1*
X46261Y12433D1*
X46204D1*
X46165Y12453D1*
X46127Y12491D1*
X46004Y12701D2*
Y12433D1*
Y12586D2*
X45984Y12644D1*
X45946Y12682D1*
X45908Y12701D1*
X45850D1*
X45669Y12835D2*
Y12510D1*
X45650Y12453D1*
X45612Y12433D1*
X45574D1*
X45727Y12701D2*
X45593D1*
M02*
