M48
INCH
T01C0.0191
T02C0.0354
T03C0.059
T04C0.067
T05C0.1181
T06C0.157
%
T01
X+049705Y+019056
X+055000Y+017911
X+056395Y+015173
X+041745Y+019056
X+040877Y+017941
T02
X+052510Y+018652
X+053510Y+018652
X+054510Y+018652
X+055510Y+018652
X+056510Y+018652
X+057510Y+018652
X+058510Y+018652
X+059510Y+018652
X+060510Y+018652
X+061510Y+018652
X+062510Y+018652
X+063510Y+018652
X+063510Y+019652
X+063510Y+020652
X+063510Y+021652
X+063510Y+022652
X+063510Y+023652
X+063510Y+024652
X+062510Y+024652
X+061510Y+024652
X+060510Y+024652
X+059510Y+024652
X+058510Y+024652
X+057510Y+024652
X+056510Y+024652
X+055510Y+024652
X+054510Y+024652
X+053510Y+024652
X+052510Y+024652
X+053632Y+025984
X+057233Y+026047
X+056510Y+023652
X+056510Y+019652
X+057185Y+017323
X+053681Y+017421
X+049705Y+017421
X+046347Y+018566
X+042370Y+018566
X+038866Y+018566
X+034890Y+018566
X+031386Y+018566
X+027410Y+018566
X+023807Y+018566
X+019831Y+018566
X+016425Y+018468
X+012449Y+018468
X+008847Y+018566
X+004870Y+018566
X+004870Y+011184
X+004870Y+009806
X+008847Y+009806
X+008847Y+011184
X+012351Y+011086
X+012449Y+009806
X+016425Y+009806
X+016327Y+011086
X+019831Y+011086
X+019831Y+009708
X+023807Y+009708
X+023807Y+011086
X+027410Y+011086
X+027311Y+009806
X+031288Y+009806
X+031386Y+011086
X+034890Y+011086
X+034792Y+009806
X+038768Y+009806
X+038866Y+011086
X+042272Y+011086
X+042274Y+010384
X+046250Y+010384
X+046248Y+011086
X+049752Y+011184
X+049754Y+009941
X+053730Y+009941
X+053729Y+011184
X+057233Y+011086
X+057233Y+009905
X+061209Y+009905
X+061209Y+011086
X+064811Y+011086
X+064811Y+009806
X+068788Y+009806
X+068788Y+011086
X+072193Y+011086
X+072193Y+009806
X+076170Y+009806
X+076170Y+011086
X+079772Y+011184
X+079772Y+009806
X+083748Y+009806
X+083748Y+011184
X+087105Y+011184
X+087105Y+009905
X+091081Y+009905
X+091081Y+011184
X+091081Y+018566
X+087105Y+018566
X+083748Y+018566
X+079772Y+018566
X+076268Y+018566
X+072292Y+018566
X+068788Y+018665
X+064811Y+018665
X+061161Y+017323
X+061209Y+026047
X+064614Y+026145
X+068591Y+026145
X+072193Y+026047
X+076170Y+026047
X+079772Y+026145
X+083748Y+026145
X+087046Y+026047
X+091022Y+026047
X+049656Y+025984
X+046347Y+026047
X+042370Y+026047
X+038768Y+026047
X+034792Y+026047
X+031288Y+026047
X+027311Y+026047
X+023709Y+026047
X+019733Y+026047
X+016425Y+026047
X+012449Y+026047
X+008847Y+026047
X+004870Y+026047
T03
X+007693Y+031134
X+005193Y+030134
X+007693Y+023654
X+005193Y+022654
X+007776Y+016173
X+005276Y+015173
X+007776Y+008693
X+007063Y+007693
X+005276Y+007693
X+009563Y+008693
X+012673Y+007693
X+014626Y+007661
X+015173Y+008693
X+016413Y+007693
X+017126Y+008661
X+018913Y+008693
X+020154Y+007693
X+022654Y+008693
X+025764Y+007693
X+027634Y+007693
X+028264Y+008693
X+030134Y+008693
X+035114Y+007693
X+036049Y+007693
X+037614Y+008693
X+038549Y+008693
X+042594Y+007693
X+045094Y+008693
X+046335Y+007693
X+048835Y+008693
X+050075Y+007693
X+052575Y+008693
X+056620Y+007693
X+057555Y+007693
X+059120Y+008693
X+060055Y+008693
X+065035Y+007693
X+067535Y+008693
X+072516Y+007693
X+075016Y+008693
X+079996Y+007693
X+082496Y+008693
X+087476Y+007693
X+089976Y+008693
X+087476Y+015173
X+089976Y+016173
X+087476Y+022654
X+089976Y+023654
X+087476Y+030134
X+089976Y+031134
X+082496Y+031134
X+079996Y+030134
X+075016Y+031134
X+072516Y+030134
X+067535Y+031134
X+065035Y+030134
X+060055Y+031134
X+057555Y+030134
X+052575Y+031134
X+050075Y+030134
X+045094Y+031134
X+042594Y+030134
X+037614Y+031134
X+035114Y+030134
X+030134Y+031134
X+027634Y+030134
X+022654Y+031134
X+020154Y+030134
X+015173Y+031134
X+012673Y+030134
X+015173Y+023654
X+012673Y+022654
X+015173Y+016173
X+012673Y+015173
X+020154Y+015173
X+022654Y+016173
X+027634Y+015173
X+030134Y+016173
X+035114Y+015173
X+037614Y+016173
X+042594Y+015173
X+045094Y+016173
X+050075Y+015173
X+052575Y+016173
X+057555Y+015173
X+060055Y+016173
X+065035Y+015173
X+067535Y+016173
X+072516Y+015173
X+075016Y+016173
X+079996Y+015173
X+082496Y+016173
X+079996Y+022654
X+082496Y+023654
X+075016Y+023654
X+072516Y+022654
X+067535Y+023654
X+065035Y+022654
X+060055Y+023654
X+057555Y+022654
X+052575Y+023654
X+050075Y+022654
X+045094Y+023654
X+042594Y+022654
X+037614Y+023654
X+035114Y+022654
X+030134Y+023654
X+027634Y+022654
X+022654Y+023654
X+020154Y+022654
T04
X+004693Y+029134
X+008693Y+029134
X+012173Y+029134
X+016173Y+029134
X+019654Y+029134
X+023654Y+029134
X+027134Y+029134
X+031134Y+029134
X+034614Y+029134
X+038614Y+029134
X+042094Y+029134
X+046094Y+029134
X+049575Y+029134
X+053575Y+029134
X+057055Y+029134
X+061055Y+029134
X+064535Y+029134
X+068535Y+029134
X+072016Y+029134
X+076016Y+029134
X+079496Y+029134
X+083496Y+029134
X+086976Y+029134
X+090976Y+029134
X+090976Y+021654
X+086976Y+021654
X+083496Y+021654
X+079496Y+021654
X+076016Y+021654
X+072016Y+021654
X+068535Y+021654
X+064535Y+021654
X+061055Y+021654
X+057055Y+021654
X+053575Y+021654
X+049575Y+021654
X+046094Y+021654
X+042094Y+021654
X+038614Y+021654
X+034614Y+021654
X+031134Y+021654
X+027134Y+021654
X+023654Y+021654
X+019654Y+021654
X+016173Y+021654
X+012173Y+021654
X+008693Y+021654
X+004693Y+021654
X+004776Y+014173
X+008776Y+014173
X+012173Y+014173
X+016173Y+014173
X+019654Y+014173
X+023654Y+014173
X+027134Y+014173
X+031134Y+014173
X+034614Y+014173
X+038614Y+014173
X+042094Y+014173
X+046094Y+014173
X+049575Y+014173
X+053575Y+014173
X+057055Y+014173
X+061055Y+014173
X+064535Y+014173
X+068535Y+014173
X+072016Y+014173
X+076016Y+014173
X+079496Y+014173
X+083496Y+014173
X+086976Y+014173
X+090976Y+014173
X+090976Y+006693
X+086976Y+006693
X+083496Y+006693
X+079496Y+006693
X+076016Y+006693
X+072016Y+006693
X+068535Y+006693
X+064535Y+006693
X+061055Y+006693
X+060120Y+006693
X+057055Y+006693
X+056120Y+006693
X+053575Y+006693
X+049835Y+006693
X+049575Y+006693
X+046094Y+006693
X+045835Y+006693
X+042094Y+006693
X+039549Y+006693
X+038614Y+006693
X+035549Y+006693
X+034614Y+006693
X+031134Y+006693
X+029264Y+006693
X+027134Y+006693
X+025264Y+006693
X+023654Y+006693
X+019913Y+006693
X+019654Y+006693
X+018126Y+006661
X+016173Y+006693
X+015913Y+006693
X+014126Y+006661
X+012173Y+006693
X+010563Y+006693
X+008776Y+006693
X+006563Y+006693
X+004776Y+006693
T05
X+010433Y+025394
X+010433Y+010433
X+047835Y+017913
X+085236Y+010433
X+085236Y+025394
T06
X+006693Y+029134
X+014173Y+029134
X+021654Y+029134
X+029134Y+029134
X+036614Y+029134
X+044094Y+029134
X+051575Y+029134
X+059055Y+029134
X+066535Y+029134
X+074016Y+029134
X+081496Y+029134
X+088976Y+029134
X+088976Y+021654
X+081496Y+021654
X+074016Y+021654
X+066535Y+021654
X+059055Y+021654
X+051575Y+021654
X+044094Y+021654
X+036614Y+021654
X+029134Y+021654
X+021654Y+021654
X+014173Y+021654
X+006693Y+021654
X+006776Y+014173
X+014173Y+014173
X+021654Y+014173
X+029134Y+014173
X+036614Y+014173
X+044094Y+014173
X+051575Y+014173
X+059055Y+014173
X+066535Y+014173
X+074016Y+014173
X+081496Y+014173
X+088976Y+014173
X+088976Y+006693
X+081496Y+006693
X+074016Y+006693
X+066535Y+006693
X+059055Y+006693
X+058120Y+006693
X+051575Y+006693
X+047835Y+006693
X+044094Y+006693
X+037549Y+006693
X+036614Y+006693
X+029134Y+006693
X+027264Y+006693
X+021654Y+006693
X+017913Y+006693
X+016126Y+006661
X+014173Y+006693
X+008563Y+006693
X+006776Y+006693
T00
M30
