G04 DipTrace 2.4.0.2*
%INTop.gbr*%
%MOIN*%
%ADD14C,0.013*%
%ADD15C,0.089*%
%ADD16C,0.0591*%
%ADD17C,0.0591*%
%ADD18C,0.04*%
%FSLAX44Y44*%
G04*
G70*
G90*
G75*
G01*
%LNTop*%
%LPD*%
X22654Y8693D2*
D14*
X18913D1*
X30134D2*
X28264D1*
X38549D2*
X37614D1*
X60055D2*
X59120D1*
X87046Y26047D2*
X86197Y26895D1*
X80522D1*
X79772Y26145D1*
X12449Y26047D2*
X11699Y26797D1*
X5620D1*
X4870Y26047D1*
X19733D2*
X19242Y25556D1*
X12939D1*
X12449Y26047D1*
X27311D2*
X26821Y25556D1*
X20223D1*
X19733Y26047D1*
X34792D2*
X34042Y26797D1*
X28061D1*
X27311Y26047D1*
X42370D2*
X41736D1*
X40986Y25297D1*
X35542D1*
X34792Y26047D1*
X49656Y25984D2*
X49165Y25494D1*
X42923D1*
X42370Y26047D1*
X53510Y24652D2*
X52177Y25984D1*
X49656D1*
X57233Y26047D2*
X56675D1*
X55770Y25142D1*
X54000D1*
X53510Y24652D1*
X64614Y26145D2*
X63871Y25402D1*
X57878D1*
X57233Y26047D1*
X72193D2*
X71605Y26635D1*
X65105D1*
X64614Y26145D1*
X79772D2*
X79183Y25556D1*
X72683D1*
X72193Y26047D1*
X49705Y17421D2*
X50195Y17911D1*
X55000D1*
X40877Y17941D2*
X35515D1*
X34890Y18566D1*
X41745Y19056D2*
X49705D1*
X79772Y18566D2*
X80262Y19056D1*
X86614D1*
X87105Y18566D1*
X72292D2*
X72782Y18076D1*
X79282D1*
X79772Y18566D1*
X64811Y18665D2*
X65400Y18076D1*
X71297D1*
X71787Y18566D1*
X72292D1*
X57185Y17323D2*
X58000Y18138D1*
Y18895D1*
X58260Y19155D1*
X64321D1*
X64811Y18665D1*
X55000Y17911D2*
X55589Y17323D1*
X57185D1*
X12449Y18468D2*
X11959Y17978D1*
X5459D1*
X4870Y18566D1*
X19831D2*
X19341Y19056D1*
X13038D1*
X12449Y18468D1*
X27410Y18566D2*
X26920Y18076D1*
X20321D1*
X19831Y18566D1*
X34890D2*
X34400Y19056D1*
X27900D1*
X27410Y18566D1*
X87105Y11184D2*
X86355Y11934D1*
X80522D1*
X79772Y11184D1*
X12351Y11086D2*
X11502Y11934D1*
X5620D1*
X4870Y11184D1*
X19831Y11086D2*
X19301Y10556D1*
X12880D1*
X12351Y11086D1*
X27410D2*
X26920Y11576D1*
X20321D1*
X19831Y11086D1*
X34890D2*
X34400Y11576D1*
X27900D1*
X27410Y11086D1*
X42272D2*
X41782Y11576D1*
X35380D1*
X34890Y11086D1*
X49752Y11184D2*
X47336D1*
X46944Y11576D1*
X42762D1*
X42272Y11086D1*
X57233D2*
X56644Y11675D1*
X50242D1*
X49752Y11184D1*
X64811Y11086D2*
X64282Y10556D1*
X57762D1*
X57233Y11086D1*
X72193D2*
X71443Y11836D1*
X65561D1*
X64811Y11086D1*
X79772Y11184D2*
X79144Y10556D1*
X72723D1*
X72193Y11086D1*
X87105Y9905D2*
X86256Y9056D1*
X83511D1*
X82761Y9806D1*
X79772D1*
X12449D2*
X11519D1*
X11360Y9648D1*
X9986D1*
X9337Y10297D1*
X5361D1*
X4870Y9806D1*
X19831Y9708D2*
X19242Y10297D1*
X12939D1*
X12449Y9806D1*
X27311D2*
X26463Y8958D1*
X23668D1*
X22918Y9708D1*
X19831D1*
X34792Y9806D2*
X34301Y10297D1*
X27801D1*
X27311Y9806D1*
X42274Y10384D2*
X38307D1*
X37729Y9806D1*
X34792D1*
X49754Y9941D2*
X49707Y9894D1*
X42764D1*
X42274Y10384D1*
X49754Y9941D2*
D3*
X57233Y9905D2*
X56661Y9333D1*
X50362D1*
X49754Y9941D1*
X64811Y9806D2*
X64061Y9056D1*
X61119D1*
X60271Y9905D1*
X57233D1*
X72193Y9806D2*
X71703Y10297D1*
X65301D1*
X64811Y9806D1*
X79772D2*
X79282Y10297D1*
X72683D1*
X72193Y9806D1*
X5276Y15173D2*
X7175Y17073D1*
X48360D1*
X48620Y17333D1*
Y17911D1*
X48880Y18171D1*
X50398D1*
X51368Y19142D1*
X53020D1*
X53510Y18652D1*
X5276Y7693D2*
X7063D1*
X12673Y22654D2*
X14893D1*
X15153Y22394D1*
Y19711D1*
X15413Y19451D1*
X53710D1*
X54510Y18652D1*
X12673Y7693D2*
X14594D1*
X14626Y7661D1*
X20154Y22654D2*
X24137D1*
X27079Y19711D1*
X54450D1*
X55510Y18652D1*
X20154Y7693D2*
X16413D1*
X27634Y22654D2*
X32502D1*
X35147Y20008D1*
X55153D1*
X56510Y18652D1*
X27634Y7693D2*
X25764D1*
X35114Y22654D2*
X39509D1*
X41895Y20268D1*
X57250D1*
X57510Y20008D1*
Y18652D1*
X35114Y7693D2*
X36049D1*
X42594Y15173D2*
X44234Y16813D1*
X58250D1*
X58510Y17073D1*
Y18652D1*
X50075Y15173D2*
X56395D1*
X50075Y7693D2*
X46335D1*
X57555D2*
X56620D1*
X72516Y15173D2*
X69876Y17813D1*
X63348D1*
X62510Y18652D1*
X79996Y22654D2*
X78096Y24553D1*
X65855D1*
X64954Y23652D1*
X63510D1*
X87476Y22654D2*
X87506Y22624D1*
Y19911D1*
X87246Y19652D1*
X63510D1*
X52575Y8693D2*
X48835D1*
D18*
X49705Y19056D3*
X41745D3*
X40877Y17941D3*
X55000Y17911D3*
X56395Y15173D3*
D15*
X7693Y31134D3*
X5193Y30134D3*
X15173Y31134D3*
X12673Y30134D3*
X22654Y31134D3*
X20154Y30134D3*
X30134Y31134D3*
X27634Y30134D3*
X37614Y31134D3*
X35114Y30134D3*
X45094Y31134D3*
X42594Y30134D3*
X52575Y31134D3*
X50075Y30134D3*
X60055Y31134D3*
X57555Y30134D3*
X67535Y31134D3*
X65035Y30134D3*
X75016Y31134D3*
X72516Y30134D3*
X82496Y31134D3*
X79996Y30134D3*
X89976Y31134D3*
X87476Y30134D3*
X7693Y23654D3*
X5193Y22654D3*
X15173Y23654D3*
X12673Y22654D3*
X22654Y23654D3*
X20154Y22654D3*
X30134Y23654D3*
X27634Y22654D3*
X37614Y23654D3*
X35114Y22654D3*
X45094Y23654D3*
X42594Y22654D3*
X52575Y23654D3*
X50075Y22654D3*
X60055Y23654D3*
X57555Y22654D3*
X67535Y23654D3*
X65035Y22654D3*
X75016Y23654D3*
X72516Y22654D3*
X82496Y23654D3*
X79996Y22654D3*
X89976Y23654D3*
X87476Y22654D3*
X7776Y16173D3*
X5276Y15173D3*
X15173Y16173D3*
X12673Y15173D3*
X22654Y16173D3*
X20154Y15173D3*
X30134Y16173D3*
X27634Y15173D3*
X37614Y16173D3*
X35114Y15173D3*
X45094Y16173D3*
X42594Y15173D3*
X52575Y16173D3*
X50075Y15173D3*
X60055Y16173D3*
X57555Y15173D3*
X67535Y16173D3*
X65035Y15173D3*
X75016Y16173D3*
X72516Y15173D3*
X82496Y16173D3*
X79996Y15173D3*
X89976Y16173D3*
X87476Y15173D3*
X7776Y8693D3*
X5276Y7693D3*
X15173Y8693D3*
X12673Y7693D3*
X22654Y8693D3*
X20154Y7693D3*
X30134Y8693D3*
X27634Y7693D3*
X37614Y8693D3*
X35114Y7693D3*
D16*
X52510Y18652D3*
X53510D3*
X54510D3*
X55510D3*
X56510D3*
X57510D3*
X58510D3*
X59510D3*
X60510D3*
X61510D3*
X62510D3*
X63510D3*
Y19652D3*
Y20652D3*
Y21652D3*
Y22652D3*
Y23652D3*
Y24652D3*
X62510D3*
X61510D3*
X60510D3*
X59510D3*
X58510D3*
X57510D3*
X56510D3*
X55510D3*
X54510D3*
X53510D3*
X52510D3*
X56510Y19652D3*
Y23652D3*
D15*
X60055Y8693D3*
X57555Y7693D3*
X67535Y8693D3*
X65035Y7693D3*
X75016Y8693D3*
X72516Y7693D3*
X82496Y8693D3*
X79996Y7693D3*
X89976Y8693D3*
X87476Y7693D3*
G36*
X86750Y26342D2*
X87341D1*
Y25751D1*
X86750D1*
Y26342D1*
G37*
D17*
X91022Y26047D3*
G36*
X80067Y25850D2*
X79477D1*
Y26440D1*
X80067D1*
Y25850D1*
G37*
D17*
X83748Y26145D3*
G36*
X72488Y25751D2*
X71898D1*
Y26342D1*
X72488D1*
Y25751D1*
G37*
D17*
X76170Y26047D3*
G36*
X64910Y25850D2*
X64319D1*
Y26440D1*
X64910D1*
Y25850D1*
G37*
D17*
X68591Y26145D3*
G36*
X57528Y25751D2*
X56937D1*
Y26342D1*
X57528D1*
Y25751D1*
G37*
D17*
X61209Y26047D3*
G36*
X49951Y25689D2*
X49360D1*
Y26280D1*
X49951D1*
Y25689D1*
G37*
D17*
X53632Y25984D3*
G36*
X42666Y25751D2*
X42075D1*
Y26342D1*
X42666D1*
Y25751D1*
G37*
D17*
X46347Y26047D3*
G36*
X35087Y25751D2*
X34496D1*
Y26342D1*
X35087D1*
Y25751D1*
G37*
D17*
X38768Y26047D3*
G36*
X27607Y25751D2*
X27016D1*
Y26342D1*
X27607D1*
Y25751D1*
G37*
D17*
X31288Y26047D3*
G36*
X20028Y25751D2*
X19437D1*
Y26342D1*
X20028D1*
Y25751D1*
G37*
D17*
X23709Y26047D3*
G36*
X12744Y25751D2*
X12154D1*
Y26342D1*
X12744D1*
Y25751D1*
G37*
D17*
X16425Y26047D3*
G36*
X5166Y25751D2*
X4575D1*
Y26342D1*
X5166D1*
Y25751D1*
G37*
D17*
X8847Y26047D3*
G36*
X5166Y18271D2*
X4575D1*
Y18862D1*
X5166D1*
Y18271D1*
G37*
D17*
X8847Y18566D3*
G36*
X12744Y18173D2*
X12154D1*
Y18763D1*
X12744D1*
Y18173D1*
G37*
D17*
X16425Y18468D3*
G36*
X20126Y18271D2*
X19536D1*
Y18862D1*
X20126D1*
Y18271D1*
G37*
D17*
X23807Y18566D3*
G36*
X27705Y18271D2*
X27114D1*
Y18862D1*
X27705D1*
Y18271D1*
G37*
D17*
X31386Y18566D3*
G36*
X35185Y18271D2*
X34595D1*
Y18862D1*
X35185D1*
Y18271D1*
G37*
D17*
X38866Y18566D3*
G36*
X42666Y18271D2*
X42075D1*
Y18862D1*
X42666D1*
Y18271D1*
G37*
D17*
X46347Y18566D3*
G36*
X50048Y10889D2*
X49457D1*
Y11480D1*
X50048D1*
Y10889D1*
G37*
D17*
X53729Y11184D3*
G36*
X57480Y17028D2*
X56890D1*
Y17618D1*
X57480D1*
Y17028D1*
G37*
D17*
X61161Y17323D3*
G36*
X65107Y18369D2*
X64516D1*
Y18960D1*
X65107D1*
Y18369D1*
G37*
D17*
X68788Y18665D3*
G36*
X72587Y18271D2*
X71996D1*
Y18862D1*
X72587D1*
Y18271D1*
G37*
D17*
X76268Y18566D3*
G36*
X80067Y18271D2*
X79477D1*
Y18862D1*
X80067D1*
Y18271D1*
G37*
D17*
X83748Y18566D3*
G36*
X87400Y18271D2*
X86809D1*
Y18862D1*
X87400D1*
Y18271D1*
G37*
D17*
X91081Y18566D3*
G36*
X87400Y10889D2*
X86809D1*
Y11480D1*
X87400D1*
Y10889D1*
G37*
D17*
X91081Y11184D3*
G36*
X80067Y10889D2*
X79477D1*
Y11480D1*
X80067D1*
Y10889D1*
G37*
D17*
X83748Y11184D3*
G36*
X72488Y10791D2*
X71898D1*
Y11381D1*
X72488D1*
Y10791D1*
G37*
D17*
X76170Y11086D3*
G36*
X65107Y10791D2*
X64516D1*
Y11381D1*
X65107D1*
Y10791D1*
G37*
D17*
X68788Y11086D3*
G36*
X57528Y10791D2*
X56937D1*
Y11381D1*
X57528D1*
Y10791D1*
G37*
D17*
X61209Y11086D3*
G36*
X50000Y17126D2*
X49409D1*
Y17717D1*
X50000D1*
Y17126D1*
G37*
D17*
X53681Y17421D3*
G36*
X42567Y10791D2*
X41977D1*
Y11381D1*
X42567D1*
Y10791D1*
G37*
D17*
X46248Y11086D3*
G36*
X35185Y10791D2*
X34595D1*
Y11381D1*
X35185D1*
Y10791D1*
G37*
D17*
X38866Y11086D3*
G36*
X27705Y10791D2*
X27114D1*
Y11381D1*
X27705D1*
Y10791D1*
G37*
D17*
X31386Y11086D3*
G36*
X20126Y10791D2*
X19536D1*
Y11381D1*
X20126D1*
Y10791D1*
G37*
D17*
X23807Y11086D3*
G36*
X12646Y10791D2*
X12055D1*
Y11381D1*
X12646D1*
Y10791D1*
G37*
D17*
X16327Y11086D3*
G36*
X5166Y10889D2*
X4575D1*
Y11480D1*
X5166D1*
Y10889D1*
G37*
D17*
X8847Y11184D3*
G36*
X87400Y9610D2*
X86809D1*
Y10200D1*
X87400D1*
Y9610D1*
G37*
D17*
X91081Y9905D3*
G36*
X80067Y9511D2*
X79477D1*
Y10102D1*
X80067D1*
Y9511D1*
G37*
D17*
X83748Y9806D3*
G36*
X72488Y9511D2*
X71898D1*
Y10102D1*
X72488D1*
Y9511D1*
G37*
D17*
X76170Y9806D3*
G36*
X65107Y9511D2*
X64516D1*
Y10102D1*
X65107D1*
Y9511D1*
G37*
D17*
X68788Y9806D3*
G36*
X57528Y9610D2*
X56937D1*
Y10200D1*
X57528D1*
Y9610D1*
G37*
D17*
X61209Y9905D3*
G36*
X42569Y10089D2*
X41978D1*
Y10679D1*
X42569D1*
Y10089D1*
G37*
D17*
X46250Y10384D3*
G36*
X35087Y9511D2*
X34496D1*
Y10102D1*
X35087D1*
Y9511D1*
G37*
D17*
X38768Y9806D3*
G36*
X27607Y9511D2*
X27016D1*
Y10102D1*
X27607D1*
Y9511D1*
G37*
D17*
X31288Y9806D3*
G36*
X20126Y9413D2*
X19536D1*
Y10003D1*
X20126D1*
Y9413D1*
G37*
D17*
X23807Y9708D3*
G36*
X12744Y9511D2*
X12154D1*
Y10102D1*
X12744D1*
Y9511D1*
G37*
D17*
X16425Y9806D3*
G36*
X5166Y9511D2*
X4575D1*
Y10102D1*
X5166D1*
Y9511D1*
G37*
D17*
X8847Y9806D3*
D15*
X38549Y8693D3*
X36049Y7693D3*
X59120Y8693D3*
X56620Y7693D3*
X28264Y8693D3*
X25764Y7693D3*
X18913Y8693D3*
X16413Y7693D3*
X9563Y8693D3*
X7063Y7693D3*
X17126Y8661D3*
X14626Y7661D3*
X52575Y8693D3*
X50075Y7693D3*
X45094Y8693D3*
X42594Y7693D3*
G36*
X50049Y9646D2*
X49459D1*
Y10236D1*
X50049D1*
Y9646D1*
G37*
D17*
X53730Y9941D3*
D15*
X48835Y8693D3*
X46335Y7693D3*
M02*
