G04 DipTrace 2.4.0.2*
%INTopAssy.gbr*%
%MOIN*%
%ADD32C,0.0077*%
%ADD33C,0.0154*%
%ADD34C,0.0124*%
%ADD35C,0.0062*%
%FSLAX44Y44*%
G04*
G70*
G90*
G75*
G01*
%LNTopAssy*%
%LPD*%
X6102Y5353D2*
D33*
X6199Y5401D1*
X6342Y5544D1*
Y4540D1*
X6651Y5210D2*
Y4732D1*
X6699Y4589D1*
X6795Y4540D1*
X6938D1*
X7033Y4589D1*
X7177Y4732D1*
Y5210D2*
Y4540D1*
X7677Y5304D2*
X7773Y5352D1*
X7917Y5495D1*
Y4491D1*
X8273Y4587D2*
X8226Y4539D1*
X8273Y4491D1*
X8322Y4539D1*
X8273Y4587D1*
X9204Y5495D2*
X8727D1*
X8679Y5065D1*
X8727Y5112D1*
X8871Y5161D1*
X9013D1*
X9157Y5112D1*
X9253Y5017D1*
X9301Y4874D1*
Y4778D1*
X9253Y4635D1*
X9157Y4539D1*
X9013Y4491D1*
X8871D1*
X8727Y4539D1*
X8679Y4587D1*
X8631Y4682D1*
X9609Y5161D2*
Y4682D1*
X9657Y4540D1*
X9753Y4491D1*
X9897D1*
X9992Y4540D1*
X10136Y4682D1*
Y5161D2*
Y4491D1*
X13238Y5550D2*
X13334Y5598D1*
X13478Y5741D1*
Y4737D1*
X13787Y5407D2*
Y4928D1*
X13834Y4786D1*
X13931Y4737D1*
X14074D1*
X14169Y4786D1*
X14313Y4928D1*
Y5407D2*
Y4737D1*
X14764Y5500D2*
X14860Y5549D1*
X15004Y5692D1*
Y4688D1*
X15360Y4784D2*
X15312Y4735D1*
X15360Y4688D1*
X15409Y4735D1*
X15360Y4784D1*
X16291Y5692D2*
X15814D1*
X15766Y5262D1*
X15814Y5309D1*
X15957Y5358D1*
X16100D1*
X16244Y5309D1*
X16340Y5214D1*
X16387Y5070D1*
Y4975D1*
X16340Y4832D1*
X16244Y4735D1*
X16100Y4688D1*
X15957D1*
X15814Y4735D1*
X15766Y4784D1*
X15717Y4879D1*
X16696Y5358D2*
Y4879D1*
X16744Y4737D1*
X16840Y4688D1*
X16983D1*
X17079Y4737D1*
X17222Y4879D1*
Y5358D2*
Y4688D1*
X17520Y5550D2*
X17616Y5598D1*
X17760Y5741D1*
Y4737D1*
X18068Y5407D2*
Y4928D1*
X18116Y4786D1*
X18212Y4737D1*
X18356D1*
X18451Y4786D1*
X18595Y4928D1*
Y5407D2*
Y4737D1*
X21161Y5500D2*
X21258Y5549D1*
X21401Y5692D1*
Y4688D1*
X21710Y5358D2*
Y4879D1*
X21758Y4737D1*
X21854Y4688D1*
X21997D1*
X22093Y4737D1*
X22236Y4879D1*
Y5358D2*
Y4688D1*
X28593Y5402D2*
X28689Y5451D1*
X28832Y5593D1*
Y4590D1*
X29141Y5259D2*
Y4781D1*
X29189Y4638D1*
X29285Y4590D1*
X29429D1*
X29524Y4638D1*
X29667Y4781D1*
Y5259D2*
Y4590D1*
X25689Y5402D2*
X25785Y5451D1*
X25929Y5593D1*
Y4590D1*
X26285Y4686D2*
X26238Y4637D1*
X26285Y4590D1*
X26334Y4637D1*
X26285Y4686D1*
X27216Y5593D2*
X26739D1*
X26691Y5163D1*
X26739Y5211D1*
X26882Y5259D1*
X27025D1*
X27169Y5211D1*
X27265Y5116D1*
X27312Y4972D1*
Y4877D1*
X27265Y4733D1*
X27169Y4637D1*
X27025Y4590D1*
X26882D1*
X26739Y4637D1*
X26691Y4686D1*
X26643Y4781D1*
X27621Y5259D2*
Y4781D1*
X27669Y4638D1*
X27765Y4590D1*
X27909D1*
X28004Y4638D1*
X28147Y4781D1*
Y5259D2*
Y4590D1*
X36663Y5500D2*
X36760Y5549D1*
X36903Y5692D1*
Y4688D1*
X37260Y4784D2*
X37212Y4735D1*
X37260Y4688D1*
X37308Y4735D1*
X37260Y4784D1*
X37666Y5453D2*
Y5500D1*
X37713Y5597D1*
X37761Y5644D1*
X37857Y5692D1*
X38048D1*
X38143Y5644D1*
X38191Y5597D1*
X38239Y5500D1*
Y5405D1*
X38191Y5309D1*
X38096Y5167D1*
X37617Y4688D1*
X38287D1*
X39169Y5692D2*
X38692D1*
X38644Y5262D1*
X38692Y5309D1*
X38836Y5358D1*
X38978D1*
X39122Y5309D1*
X39218Y5214D1*
X39266Y5070D1*
Y4975D1*
X39218Y4832D1*
X39122Y4735D1*
X38978Y4688D1*
X38836D1*
X38692Y4735D1*
X38644Y4784D1*
X38596Y4879D1*
X39574Y5358D2*
Y4879D1*
X39622Y4737D1*
X39718Y4688D1*
X39862D1*
X39957Y4737D1*
X40100Y4879D1*
Y5358D2*
Y4688D1*
X55610Y5402D2*
X55706Y5451D1*
X55850Y5593D1*
Y4590D1*
X56206Y4686D2*
X56159Y4637D1*
X56206Y4590D1*
X56255Y4637D1*
X56206Y4686D1*
X56612Y5354D2*
Y5402D1*
X56660Y5498D1*
X56708Y5546D1*
X56804Y5593D1*
X56995D1*
X57090Y5546D1*
X57138Y5498D1*
X57186Y5402D1*
Y5307D1*
X57138Y5211D1*
X57042Y5068D1*
X56564Y4590D1*
X57234D1*
X58116Y5593D2*
X57639D1*
X57591Y5163D1*
X57639Y5211D1*
X57782Y5259D1*
X57925D1*
X58069Y5211D1*
X58165Y5116D1*
X58212Y4972D1*
Y4877D1*
X58165Y4733D1*
X58069Y4637D1*
X57925Y4590D1*
X57782D1*
X57639Y4637D1*
X57591Y4686D1*
X57543Y4781D1*
X58521Y5259D2*
Y4781D1*
X58569Y4638D1*
X58665Y4590D1*
X58809D1*
X58904Y4638D1*
X59047Y4781D1*
Y5259D2*
Y4590D1*
X35138Y5550D2*
X35234Y5598D1*
X35378Y5741D1*
Y4737D1*
X35686Y5407D2*
Y4928D1*
X35734Y4786D1*
X35830Y4737D1*
X35974D1*
X36069Y4786D1*
X36213Y4928D1*
Y5407D2*
Y4737D1*
X59498Y5402D2*
X59594Y5451D1*
X59738Y5593D1*
Y4590D1*
X60047Y5259D2*
Y4781D1*
X60094Y4638D1*
X60190Y4590D1*
X60334D1*
X60429Y4638D1*
X60573Y4781D1*
Y5259D2*
Y4590D1*
X45851Y15871D2*
D34*
X46196D1*
X46310Y15909D1*
X46349Y15948D1*
X46387Y16024D1*
Y16139D1*
X46349Y16215D1*
X46310Y16254D1*
X46196Y16292D1*
X45851D1*
Y15488D1*
X46634Y16292D2*
Y15488D1*
X47340Y16024D2*
Y15488D1*
Y15909D2*
X47264Y15986D1*
X47187Y16024D1*
X47073D1*
X46996Y15986D1*
X46920Y15909D1*
X46881Y15794D1*
Y15718D1*
X46920Y15603D1*
X46996Y15527D1*
X47073Y15488D1*
X47187D1*
X47264Y15527D1*
X47340Y15603D1*
X47587Y16024D2*
Y15488D1*
Y15871D2*
X47702Y15986D1*
X47779Y16024D1*
X47893D1*
X47970Y15986D1*
X48008Y15871D1*
Y15488D1*
X48714Y15909D2*
X48638Y15986D1*
X48561Y16024D1*
X48446D1*
X48370Y15986D1*
X48294Y15909D1*
X48255Y15794D1*
Y15718D1*
X48294Y15603D1*
X48370Y15527D1*
X48446Y15488D1*
X48561D1*
X48638Y15527D1*
X48714Y15603D1*
X48961Y16292D2*
Y15488D1*
X49344Y16024D2*
X48961Y15641D1*
X49114Y15794D2*
X49382Y15488D1*
X45877Y15213D2*
D32*
Y14710D1*
X46116Y15045D2*
X45877Y14806D1*
X45972Y14902D2*
X46140Y14710D1*
X46294Y14902D2*
X46581D1*
Y14950D1*
X46557Y14998D1*
X46534Y15021D1*
X46485Y15045D1*
X46414D1*
X46366Y15021D1*
X46318Y14973D1*
X46294Y14902D1*
Y14854D1*
X46318Y14782D1*
X46366Y14735D1*
X46414Y14710D1*
X46485D1*
X46534Y14735D1*
X46581Y14782D1*
X46760Y15045D2*
X46903Y14710D1*
X46855Y14615D1*
X46807Y14567D1*
X46760Y14543D1*
X46735D1*
X47047Y15045D2*
X46903Y14710D1*
X47201Y15213D2*
Y14710D1*
Y14973D2*
X47249Y15021D1*
X47297Y15045D1*
X47369D1*
X47416Y15021D1*
X47464Y14973D1*
X47488Y14902D1*
Y14854D1*
X47464Y14782D1*
X47416Y14735D1*
X47369Y14710D1*
X47297D1*
X47249Y14735D1*
X47201Y14782D1*
X47762Y15045D2*
X47714Y15021D1*
X47666Y14973D1*
X47642Y14902D1*
Y14854D1*
X47666Y14782D1*
X47714Y14735D1*
X47762Y14710D1*
X47834D1*
X47882Y14735D1*
X47929Y14782D1*
X47953Y14854D1*
Y14902D1*
X47929Y14973D1*
X47882Y15021D1*
X47834Y15045D1*
X47762D1*
X48395D2*
Y14710D1*
Y14973D2*
X48347Y15021D1*
X48299Y15045D1*
X48228D1*
X48180Y15021D1*
X48132Y14973D1*
X48108Y14902D1*
Y14854D1*
X48132Y14782D1*
X48180Y14735D1*
X48228Y14710D1*
X48299D1*
X48347Y14735D1*
X48395Y14782D1*
X48549Y15045D2*
Y14710D1*
Y14902D2*
X48573Y14973D1*
X48621Y15021D1*
X48669Y15045D1*
X48741D1*
X49182Y15213D2*
Y14710D1*
Y14973D2*
X49135Y15021D1*
X49086Y15045D1*
X49015D1*
X48967Y15021D1*
X48919Y14973D1*
X48895Y14902D1*
Y14854D1*
X48919Y14782D1*
X48967Y14735D1*
X49015Y14710D1*
X49086D1*
X49135Y14735D1*
X49182Y14782D1*
X46861Y14159D2*
X47005Y13824D1*
X47148Y14159D1*
X47302Y14231D2*
X47350Y14255D1*
X47422Y14326D1*
Y13824D1*
X47600Y13873D2*
X47577Y13848D1*
X47600Y13824D1*
X47625Y13848D1*
X47600Y13873D1*
X47923Y14326D2*
X47851Y14303D1*
X47803Y14231D1*
X47779Y14111D1*
Y14039D1*
X47803Y13920D1*
X47851Y13848D1*
X47923Y13824D1*
X47970D1*
X48042Y13848D1*
X48090Y13920D1*
X48114Y14039D1*
Y14111D1*
X48090Y14231D1*
X48042Y14303D1*
X47970Y14326D1*
X47923D1*
X48090Y14231D2*
X47803Y13920D1*
X45574Y13215D2*
D35*
X45746D1*
X45803Y13234D1*
X45823Y13254D1*
X45842Y13292D1*
Y13349D1*
X45823Y13387D1*
X45803Y13407D1*
X45746Y13426D1*
X45574D1*
Y13024D1*
X45965Y13426D2*
X45984Y13407D1*
X46004Y13426D1*
X45984Y13445D1*
X45965Y13426D1*
X45984Y13292D2*
Y13024D1*
X46127Y13177D2*
X46357D1*
Y13215D1*
X46338Y13254D1*
X46319Y13273D1*
X46280Y13292D1*
X46223D1*
X46185Y13273D1*
X46146Y13234D1*
X46127Y13177D1*
Y13139D1*
X46146Y13081D1*
X46185Y13043D1*
X46223Y13024D1*
X46280D1*
X46319Y13043D1*
X46357Y13081D1*
X46480Y13292D2*
Y13024D1*
Y13177D2*
X46500Y13234D1*
X46538Y13273D1*
X46576Y13292D1*
X46634D1*
X46757D2*
Y13024D1*
Y13177D2*
X46777Y13234D1*
X46815Y13273D1*
X46853Y13292D1*
X46911D1*
X47034Y13177D2*
X47264D1*
Y13215D1*
X47245Y13254D1*
X47226Y13273D1*
X47187Y13292D1*
X47130D1*
X47092Y13273D1*
X47053Y13234D1*
X47034Y13177D1*
Y13139D1*
X47053Y13081D1*
X47092Y13043D1*
X47130Y13024D1*
X47187D1*
X47226Y13043D1*
X47264Y13081D1*
X48063Y13330D2*
X48044Y13368D1*
X48005Y13407D1*
X47967Y13426D1*
X47891D1*
X47852Y13407D1*
X47814Y13368D1*
X47795Y13330D1*
X47776Y13273D1*
Y13177D1*
X47795Y13120D1*
X47814Y13081D1*
X47852Y13043D1*
X47891Y13024D1*
X47967D1*
X48005Y13043D1*
X48044Y13081D1*
X48063Y13120D1*
X48416Y13292D2*
Y13024D1*
Y13234D2*
X48378Y13273D1*
X48339Y13292D1*
X48282D1*
X48244Y13273D1*
X48206Y13234D1*
X48186Y13177D1*
Y13139D1*
X48206Y13081D1*
X48244Y13043D1*
X48282Y13024D1*
X48339D1*
X48378Y13043D1*
X48416Y13081D1*
X48539Y13292D2*
Y13024D1*
Y13177D2*
X48559Y13234D1*
X48597Y13273D1*
X48635Y13292D1*
X48693D1*
X48816D2*
Y13024D1*
Y13177D2*
X48836Y13234D1*
X48874Y13273D1*
X48912Y13292D1*
X48970D1*
X49093Y13426D2*
X49112Y13407D1*
X49132Y13426D1*
X49112Y13445D1*
X49093Y13426D1*
X49112Y13292D2*
Y13024D1*
X49255Y13177D2*
X49485D1*
Y13215D1*
X49466Y13254D1*
X49447Y13273D1*
X49408Y13292D1*
X49351D1*
X49313Y13273D1*
X49274Y13234D1*
X49255Y13177D1*
Y13139D1*
X49274Y13081D1*
X49313Y13043D1*
X49351Y13024D1*
X49408D1*
X49447Y13043D1*
X49485Y13081D1*
X49608Y13292D2*
Y13024D1*
Y13177D2*
X49628Y13234D1*
X49666Y13273D1*
X49704Y13292D1*
X49762D1*
X45765Y12786D2*
Y12480D1*
X45746Y12423D1*
X45727Y12404D1*
X45689Y12384D1*
X45650D1*
X45612Y12404D1*
X45593Y12423D1*
X45574Y12480D1*
Y12518D1*
X46118Y12652D2*
Y12384D1*
Y12595D2*
X46080Y12633D1*
X46042Y12652D1*
X45985D1*
X45946Y12633D1*
X45908Y12595D1*
X45889Y12537D1*
Y12499D1*
X45908Y12442D1*
X45946Y12404D1*
X45985Y12384D1*
X46042D1*
X46080Y12404D1*
X46118Y12442D1*
X46472Y12595D2*
X46433Y12633D1*
X46395Y12652D1*
X46338D1*
X46299Y12633D1*
X46261Y12595D1*
X46242Y12537D1*
Y12499D1*
X46261Y12442D1*
X46299Y12404D1*
X46338Y12384D1*
X46395D1*
X46433Y12404D1*
X46472Y12442D1*
X46595Y12786D2*
Y12384D1*
X46787Y12652D2*
X46595Y12461D1*
X46672Y12537D2*
X46806Y12384D1*
X47318Y12786D2*
Y12384D1*
X47586Y12786D2*
Y12384D1*
X47318Y12595D2*
X47586D1*
X47709Y12652D2*
Y12461D1*
X47728Y12404D1*
X47767Y12384D1*
X47824D1*
X47862Y12404D1*
X47920Y12461D1*
Y12652D2*
Y12384D1*
X48043Y12652D2*
Y12384D1*
Y12576D2*
X48101Y12633D1*
X48139Y12652D1*
X48196D1*
X48235Y12633D1*
X48254Y12576D1*
Y12384D1*
Y12576D2*
X48311Y12633D1*
X48350Y12652D1*
X48407D1*
X48445Y12633D1*
X48465Y12576D1*
Y12384D1*
X48588Y12786D2*
Y12384D1*
Y12595D2*
X48627Y12633D1*
X48665Y12652D1*
X48722D1*
X48760Y12633D1*
X48799Y12595D1*
X48818Y12537D1*
Y12499D1*
X48799Y12442D1*
X48760Y12404D1*
X48722Y12384D1*
X48665D1*
X48627Y12404D1*
X48588Y12442D1*
X48941Y12537D2*
X49171D1*
Y12576D1*
X49152Y12614D1*
X49133Y12633D1*
X49094Y12652D1*
X49037D1*
X48999Y12633D1*
X48960Y12595D1*
X48941Y12537D1*
Y12499D1*
X48960Y12442D1*
X48999Y12404D1*
X49037Y12384D1*
X49094D1*
X49133Y12404D1*
X49171Y12442D1*
X49294Y12652D2*
Y12384D1*
Y12537D2*
X49314Y12595D1*
X49352Y12633D1*
X49390Y12652D1*
X49448D1*
X49629Y12786D2*
Y12461D1*
X49648Y12404D1*
X49686Y12384D1*
X49724D1*
X49571Y12652D2*
X49705D1*
X43504Y5500D2*
D33*
X43600Y5549D1*
X43744Y5692D1*
Y4688D1*
X44053Y5358D2*
Y4879D1*
X44100Y4737D1*
X44196Y4688D1*
X44340D1*
X44435Y4737D1*
X44579Y4879D1*
Y5358D2*
Y4688D1*
X50984Y5451D2*
X51080Y5500D1*
X51224Y5642D1*
Y4639D1*
X51533Y5309D2*
Y4830D1*
X51580Y4687D1*
X51677Y4639D1*
X51820D1*
X51915Y4687D1*
X52059Y4830D1*
Y5309D2*
Y4639D1*
X45669Y5453D2*
Y5500D1*
X45716Y5597D1*
X45764Y5644D1*
X45860Y5692D1*
X46051D1*
X46146Y5644D1*
X46194Y5597D1*
X46242Y5500D1*
Y5405D1*
X46194Y5309D1*
X46099Y5167D1*
X45620Y4688D1*
X46290D1*
X46599D2*
X47269Y5692D1*
X47577Y5500D2*
X47674Y5549D1*
X47817Y5692D1*
Y4688D1*
X48174Y4784D2*
X48126Y4735D1*
X48174Y4688D1*
X48222Y4735D1*
X48174Y4784D1*
X49105Y5692D2*
X48627D1*
X48580Y5262D1*
X48627Y5309D1*
X48771Y5358D1*
X48913D1*
X49057Y5309D1*
X49153Y5214D1*
X49201Y5070D1*
Y4975D1*
X49153Y4832D1*
X49057Y4735D1*
X48913Y4688D1*
X48771D1*
X48627Y4735D1*
X48580Y4784D1*
X48531Y4879D1*
X49510Y5358D2*
Y4879D1*
X49557Y4737D1*
X49653Y4688D1*
X49797D1*
X49892Y4737D1*
X50036Y4879D1*
Y5358D2*
Y4688D1*
M02*
