G04 DipTrace 2.4.0.2*
%INTopSilk.gbr*%
%MOIN*%
%ADD10C,0.0098*%
%ADD32C,0.0077*%
%FSLAX44Y44*%
G04*
G70*
G90*
G75*
G01*
%LNTopSilk*%
%LPD*%
X3937Y31890D2*
D10*
X9449D1*
Y26378D1*
X3937D1*
Y31890D1*
X11417D2*
X16929D1*
Y26378D1*
X11417D1*
Y31890D1*
X18898D2*
X24409D1*
Y26378D1*
X18898D1*
Y31890D1*
X26378D2*
X31890D1*
Y26378D1*
X26378D1*
Y31890D1*
X33858D2*
X39370D1*
Y26378D1*
X33858D1*
Y31890D1*
X41339D2*
X46850D1*
Y26378D1*
X41339D1*
Y31890D1*
X48819D2*
X54331D1*
Y26378D1*
X48819D1*
Y31890D1*
X56299D2*
X61811D1*
Y26378D1*
X56299D1*
Y31890D1*
X63780D2*
X69291D1*
Y26378D1*
X63780D1*
Y31890D1*
X71260D2*
X76772D1*
Y26378D1*
X71260D1*
Y31890D1*
X78740D2*
X84252D1*
Y26378D1*
X78740D1*
Y31890D1*
X86220D2*
X91732D1*
Y26378D1*
X86220D1*
Y31890D1*
X3937Y24409D2*
X9449D1*
Y18898D1*
X3937D1*
Y24409D1*
X11417D2*
X16929D1*
Y18898D1*
X11417D1*
Y24409D1*
X18898D2*
X24409D1*
Y18898D1*
X18898D1*
Y24409D1*
X26378D2*
X31890D1*
Y18898D1*
X26378D1*
Y24409D1*
X33858D2*
X39370D1*
Y18898D1*
X33858D1*
Y24409D1*
X41339D2*
X46850D1*
Y18898D1*
X41339D1*
Y24409D1*
X48819D2*
X54331D1*
Y18898D1*
X48819D1*
Y24409D1*
X56299D2*
X61811D1*
Y18898D1*
X56299D1*
Y24409D1*
X63780D2*
X69291D1*
Y18898D1*
X63780D1*
Y24409D1*
X71260D2*
X76772D1*
Y18898D1*
X71260D1*
Y24409D1*
X78740D2*
X84252D1*
Y18898D1*
X78740D1*
Y24409D1*
X86220D2*
X91732D1*
Y18898D1*
X86220D1*
Y24409D1*
X4020Y16929D2*
X9531D1*
Y11417D1*
X4020D1*
Y16929D1*
X11417D2*
X16929D1*
Y11417D1*
X11417D1*
Y16929D1*
X18898D2*
X24409D1*
Y11417D1*
X18898D1*
Y16929D1*
X26378D2*
X31890D1*
Y11417D1*
X26378D1*
Y16929D1*
X33858D2*
X39370D1*
Y11417D1*
X33858D1*
Y16929D1*
X41339D2*
X46850D1*
Y11417D1*
X41339D1*
Y16929D1*
X48819D2*
X54331D1*
Y11417D1*
X48819D1*
Y16929D1*
X56299D2*
X61811D1*
Y11417D1*
X56299D1*
Y16929D1*
X63780D2*
X69291D1*
Y11417D1*
X63780D1*
Y16929D1*
X71260D2*
X76772D1*
Y11417D1*
X71260D1*
Y16929D1*
X78740D2*
X84252D1*
Y11417D1*
X78740D1*
Y16929D1*
X86220D2*
X91732D1*
Y11417D1*
X86220D1*
Y16929D1*
X4020Y9449D2*
X9531D1*
Y3937D1*
X4020D1*
Y9449D1*
X11417D2*
X16929D1*
Y3937D1*
X11417D1*
Y9449D1*
X18898D2*
X24409D1*
Y3937D1*
X18898D1*
Y9449D1*
X26378D2*
X31890D1*
Y3937D1*
X26378D1*
Y9449D1*
X33858D2*
X39370D1*
Y3937D1*
X33858D1*
Y9449D1*
X45079D2*
X50591D1*
Y3937D1*
X45079D1*
Y9449D1*
X56299D2*
X61811D1*
Y3937D1*
X56299D1*
Y9449D1*
X63780D2*
X69291D1*
Y3937D1*
X63780D1*
Y9449D1*
X71260D2*
X76772D1*
Y3937D1*
X71260D1*
Y9449D1*
X78740D2*
X84252D1*
Y3937D1*
X78740D1*
Y9449D1*
X86220D2*
X91732D1*
Y3937D1*
X86220D1*
Y9449D1*
X34793D2*
X40305D1*
Y3937D1*
X34793D1*
Y9449D1*
X55364D2*
X60876D1*
Y3937D1*
X55364D1*
Y9449D1*
X24508D2*
X30020D1*
Y3937D1*
X24508D1*
Y9449D1*
X15157D2*
X20669D1*
Y3937D1*
X15157D1*
Y9449D1*
X5807D2*
X11319D1*
Y3937D1*
X5807D1*
Y9449D1*
X13370Y9417D2*
X18882D1*
Y3906D1*
X13370D1*
Y9417D1*
X6388Y32622D2*
D32*
Y32263D1*
X6412Y32191D1*
X6460Y32144D1*
X6532Y32120D1*
X6580D1*
X6651Y32144D1*
X6699Y32191D1*
X6723Y32263D1*
Y32622D1*
X6878Y32526D2*
X6926Y32550D1*
X6998Y32621D1*
Y32120D1*
X13761Y32622D2*
Y32263D1*
X13785Y32191D1*
X13833Y32144D1*
X13905Y32120D1*
X13952D1*
X14024Y32144D1*
X14072Y32191D1*
X14096Y32263D1*
Y32622D1*
X14275Y32502D2*
Y32526D1*
X14299Y32574D1*
X14322Y32598D1*
X14370Y32621D1*
X14466D1*
X14514Y32598D1*
X14537Y32574D1*
X14562Y32526D1*
Y32478D1*
X14537Y32430D1*
X14490Y32359D1*
X14250Y32120D1*
X14585D1*
X21241Y32622D2*
Y32263D1*
X21265Y32191D1*
X21313Y32144D1*
X21385Y32120D1*
X21433D1*
X21504Y32144D1*
X21553Y32191D1*
X21576Y32263D1*
Y32622D1*
X21779Y32621D2*
X22041D1*
X21898Y32430D1*
X21970D1*
X22018Y32406D1*
X22041Y32383D1*
X22066Y32311D1*
Y32263D1*
X22041Y32191D1*
X21994Y32143D1*
X21922Y32120D1*
X21850D1*
X21779Y32143D1*
X21755Y32168D1*
X21731Y32215D1*
X28710Y32622D2*
Y32263D1*
X28734Y32191D1*
X28782Y32144D1*
X28854Y32120D1*
X28901D1*
X28973Y32144D1*
X29021Y32191D1*
X29045Y32263D1*
Y32622D1*
X29438Y32120D2*
Y32621D1*
X29199Y32287D1*
X29558D1*
X36202Y32622D2*
Y32263D1*
X36226Y32191D1*
X36274Y32144D1*
X36346Y32120D1*
X36393D1*
X36465Y32144D1*
X36513Y32191D1*
X36537Y32263D1*
Y32622D1*
X36978Y32621D2*
X36739D1*
X36716Y32406D1*
X36739Y32430D1*
X36811Y32455D1*
X36883D1*
X36954Y32430D1*
X37003Y32383D1*
X37026Y32311D1*
Y32263D1*
X37003Y32191D1*
X36954Y32143D1*
X36883Y32120D1*
X36811D1*
X36739Y32143D1*
X36716Y32168D1*
X36691Y32215D1*
X43695Y32622D2*
Y32263D1*
X43718Y32191D1*
X43766Y32144D1*
X43838Y32120D1*
X43886D1*
X43958Y32144D1*
X44006Y32191D1*
X44029Y32263D1*
Y32622D1*
X44471Y32550D2*
X44447Y32598D1*
X44375Y32621D1*
X44328D1*
X44256Y32598D1*
X44208Y32526D1*
X44184Y32406D1*
Y32287D1*
X44208Y32191D1*
X44256Y32143D1*
X44328Y32120D1*
X44351D1*
X44423Y32143D1*
X44471Y32191D1*
X44494Y32263D1*
Y32287D1*
X44471Y32359D1*
X44423Y32406D1*
X44351Y32430D1*
X44328D1*
X44256Y32406D1*
X44208Y32359D1*
X44184Y32287D1*
X51163Y32622D2*
Y32263D1*
X51186Y32191D1*
X51235Y32144D1*
X51306Y32120D1*
X51354D1*
X51426Y32144D1*
X51474Y32191D1*
X51498Y32263D1*
Y32622D1*
X51748Y32120D2*
X51987Y32621D1*
X51652D1*
X58643Y32622D2*
Y32263D1*
X58667Y32191D1*
X58715Y32144D1*
X58787Y32120D1*
X58834D1*
X58906Y32144D1*
X58954Y32191D1*
X58978Y32263D1*
Y32622D1*
X59252Y32621D2*
X59181Y32598D1*
X59156Y32550D1*
Y32502D1*
X59181Y32455D1*
X59228Y32430D1*
X59324Y32406D1*
X59396Y32383D1*
X59443Y32335D1*
X59467Y32287D1*
Y32215D1*
X59443Y32168D1*
X59419Y32143D1*
X59348Y32120D1*
X59252D1*
X59181Y32143D1*
X59156Y32168D1*
X59133Y32215D1*
Y32287D1*
X59156Y32335D1*
X59204Y32383D1*
X59276Y32406D1*
X59371Y32430D1*
X59419Y32455D1*
X59443Y32502D1*
Y32550D1*
X59419Y32598D1*
X59348Y32621D1*
X59252D1*
X66135Y32622D2*
Y32263D1*
X66159Y32191D1*
X66207Y32144D1*
X66279Y32120D1*
X66326D1*
X66398Y32144D1*
X66446Y32191D1*
X66470Y32263D1*
Y32622D1*
X66936Y32455D2*
X66911Y32383D1*
X66864Y32335D1*
X66792Y32311D1*
X66768D1*
X66696Y32335D1*
X66649Y32383D1*
X66625Y32455D1*
Y32478D1*
X66649Y32550D1*
X66696Y32598D1*
X66768Y32621D1*
X66792D1*
X66864Y32598D1*
X66911Y32550D1*
X66936Y32455D1*
Y32335D1*
X66911Y32215D1*
X66864Y32143D1*
X66792Y32120D1*
X66744D1*
X66673Y32143D1*
X66649Y32191D1*
X73466Y32622D2*
Y32263D1*
X73490Y32191D1*
X73538Y32144D1*
X73610Y32120D1*
X73658D1*
X73730Y32144D1*
X73778Y32191D1*
X73801Y32263D1*
Y32622D1*
X73956Y32526D2*
X74004Y32550D1*
X74076Y32621D1*
Y32120D1*
X74374Y32621D2*
X74302Y32598D1*
X74254Y32526D1*
X74230Y32406D1*
Y32335D1*
X74254Y32215D1*
X74302Y32143D1*
X74374Y32120D1*
X74421D1*
X74493Y32143D1*
X74541Y32215D1*
X74565Y32335D1*
Y32406D1*
X74541Y32526D1*
X74493Y32598D1*
X74421Y32621D1*
X74374D1*
X74541Y32526D2*
X74254Y32215D1*
X81054Y32622D2*
Y32263D1*
X81078Y32191D1*
X81126Y32144D1*
X81198Y32120D1*
X81246D1*
X81317Y32144D1*
X81365Y32191D1*
X81389Y32263D1*
Y32622D1*
X81544Y32526D2*
X81592Y32550D1*
X81664Y32621D1*
Y32120D1*
X81818Y32526D2*
X81866Y32550D1*
X81938Y32621D1*
Y32120D1*
X88427Y32622D2*
Y32263D1*
X88451Y32191D1*
X88499Y32144D1*
X88571Y32120D1*
X88618D1*
X88690Y32144D1*
X88738Y32191D1*
X88762Y32263D1*
Y32622D1*
X88916Y32526D2*
X88964Y32550D1*
X89036Y32621D1*
Y32120D1*
X89215Y32502D2*
Y32526D1*
X89239Y32574D1*
X89263Y32598D1*
X89311Y32621D1*
X89406D1*
X89454Y32598D1*
X89478Y32574D1*
X89502Y32526D1*
Y32478D1*
X89478Y32430D1*
X89430Y32359D1*
X89191Y32120D1*
X89526D1*
X6144Y25142D2*
Y24783D1*
X6167Y24711D1*
X6215Y24664D1*
X6287Y24639D1*
X6335D1*
X6407Y24664D1*
X6455Y24711D1*
X6479Y24783D1*
Y25142D1*
X6633Y25046D2*
X6681Y25070D1*
X6753Y25141D1*
Y24639D1*
X6955Y25141D2*
X7218D1*
X7075Y24950D1*
X7147D1*
X7194Y24926D1*
X7218Y24902D1*
X7242Y24831D1*
Y24783D1*
X7218Y24711D1*
X7170Y24663D1*
X7099Y24639D1*
X7027D1*
X6955Y24663D1*
X6932Y24687D1*
X6907Y24735D1*
X13612Y25142D2*
Y24783D1*
X13636Y24711D1*
X13684Y24664D1*
X13756Y24639D1*
X13803D1*
X13875Y24664D1*
X13923Y24711D1*
X13947Y24783D1*
Y25142D1*
X14101Y25046D2*
X14149Y25070D1*
X14221Y25141D1*
Y24639D1*
X14615D2*
Y25141D1*
X14376Y24807D1*
X14734D1*
X21104Y25142D2*
Y24783D1*
X21128Y24711D1*
X21176Y24664D1*
X21248Y24639D1*
X21295D1*
X21367Y24664D1*
X21415Y24711D1*
X21439Y24783D1*
Y25142D1*
X21594Y25046D2*
X21642Y25070D1*
X21714Y25141D1*
Y24639D1*
X22155Y25141D2*
X21916D1*
X21892Y24926D1*
X21916Y24950D1*
X21988Y24974D1*
X22059D1*
X22131Y24950D1*
X22179Y24902D1*
X22203Y24831D1*
Y24783D1*
X22179Y24711D1*
X22131Y24663D1*
X22059Y24639D1*
X21988D1*
X21916Y24663D1*
X21892Y24687D1*
X21868Y24735D1*
X28597Y25142D2*
Y24783D1*
X28620Y24711D1*
X28669Y24664D1*
X28740Y24639D1*
X28788D1*
X28860Y24664D1*
X28908Y24711D1*
X28932Y24783D1*
Y25142D1*
X29086Y25046D2*
X29134Y25070D1*
X29206Y25141D1*
Y24639D1*
X29647Y25070D2*
X29623Y25117D1*
X29552Y25141D1*
X29504D1*
X29432Y25117D1*
X29384Y25046D1*
X29360Y24926D1*
Y24807D1*
X29384Y24711D1*
X29432Y24663D1*
X29504Y24639D1*
X29528D1*
X29599Y24663D1*
X29647Y24711D1*
X29671Y24783D1*
Y24807D1*
X29647Y24879D1*
X29599Y24926D1*
X29528Y24950D1*
X29504D1*
X29432Y24926D1*
X29384Y24879D1*
X29360Y24807D1*
X36065Y25142D2*
Y24783D1*
X36089Y24711D1*
X36137Y24664D1*
X36209Y24639D1*
X36256D1*
X36328Y24664D1*
X36376Y24711D1*
X36400Y24783D1*
Y25142D1*
X36554Y25046D2*
X36602Y25070D1*
X36674Y25141D1*
Y24639D1*
X36924D2*
X37163Y25141D1*
X36829D1*
X43545Y25142D2*
Y24783D1*
X43569Y24711D1*
X43617Y24664D1*
X43689Y24639D1*
X43737D1*
X43809Y24664D1*
X43857Y24711D1*
X43880Y24783D1*
Y25142D1*
X44035Y25046D2*
X44083Y25070D1*
X44155Y25141D1*
Y24639D1*
X44429Y25141D2*
X44357Y25117D1*
X44333Y25070D1*
Y25022D1*
X44357Y24974D1*
X44405Y24950D1*
X44500Y24926D1*
X44572Y24902D1*
X44620Y24854D1*
X44644Y24807D1*
Y24735D1*
X44620Y24687D1*
X44596Y24663D1*
X44524Y24639D1*
X44429D1*
X44357Y24663D1*
X44333Y24687D1*
X44309Y24735D1*
Y24807D1*
X44333Y24854D1*
X44381Y24902D1*
X44452Y24926D1*
X44548Y24950D1*
X44596Y24974D1*
X44620Y25022D1*
Y25070D1*
X44596Y25117D1*
X44524Y25141D1*
X44429D1*
X51037Y25142D2*
Y24783D1*
X51061Y24711D1*
X51109Y24664D1*
X51181Y24639D1*
X51229D1*
X51300Y24664D1*
X51349Y24711D1*
X51372Y24783D1*
Y25142D1*
X51527Y25046D2*
X51575Y25070D1*
X51647Y25141D1*
Y24639D1*
X52112Y24974D2*
X52088Y24902D1*
X52040Y24854D1*
X51969Y24831D1*
X51945D1*
X51873Y24854D1*
X51825Y24902D1*
X51801Y24974D1*
Y24998D1*
X51825Y25070D1*
X51873Y25117D1*
X51945Y25141D1*
X51969D1*
X52040Y25117D1*
X52088Y25070D1*
X52112Y24974D1*
Y24854D1*
X52088Y24735D1*
X52040Y24663D1*
X51969Y24639D1*
X51921D1*
X51849Y24663D1*
X51825Y24711D1*
X58398Y25142D2*
Y24783D1*
X58422Y24711D1*
X58470Y24664D1*
X58542Y24639D1*
X58590D1*
X58661Y24664D1*
X58709Y24711D1*
X58733Y24783D1*
Y25142D1*
X58912Y25022D2*
Y25046D1*
X58936Y25094D1*
X58960Y25117D1*
X59008Y25141D1*
X59103D1*
X59151Y25117D1*
X59175Y25094D1*
X59199Y25046D1*
Y24998D1*
X59175Y24950D1*
X59127Y24879D1*
X58888Y24639D1*
X59223D1*
X59521Y25141D2*
X59449Y25117D1*
X59401Y25046D1*
X59377Y24926D1*
Y24854D1*
X59401Y24735D1*
X59449Y24663D1*
X59521Y24639D1*
X59568D1*
X59640Y24663D1*
X59688Y24735D1*
X59712Y24854D1*
Y24926D1*
X59688Y25046D1*
X59640Y25117D1*
X59568Y25141D1*
X59521D1*
X59688Y25046D2*
X59401Y24735D1*
X65986Y25142D2*
Y24783D1*
X66010Y24711D1*
X66058Y24664D1*
X66130Y24639D1*
X66177D1*
X66249Y24664D1*
X66297Y24711D1*
X66321Y24783D1*
Y25142D1*
X66500Y25022D2*
Y25046D1*
X66524Y25094D1*
X66547Y25117D1*
X66595Y25141D1*
X66691D1*
X66739Y25117D1*
X66762Y25094D1*
X66787Y25046D1*
Y24998D1*
X66762Y24950D1*
X66715Y24879D1*
X66475Y24639D1*
X66810D1*
X66965Y25046D2*
X67013Y25070D1*
X67085Y25141D1*
Y24639D1*
X73359Y25142D2*
Y24783D1*
X73383Y24711D1*
X73431Y24664D1*
X73503Y24639D1*
X73550D1*
X73622Y24664D1*
X73670Y24711D1*
X73694Y24783D1*
Y25142D1*
X73873Y25022D2*
Y25046D1*
X73896Y25094D1*
X73920Y25117D1*
X73968Y25141D1*
X74064D1*
X74111Y25117D1*
X74135Y25094D1*
X74159Y25046D1*
Y24998D1*
X74135Y24950D1*
X74088Y24879D1*
X73848Y24639D1*
X74183D1*
X74362Y25022D2*
Y25046D1*
X74386Y25094D1*
X74409Y25117D1*
X74458Y25141D1*
X74553D1*
X74601Y25117D1*
X74624Y25094D1*
X74649Y25046D1*
Y24998D1*
X74624Y24950D1*
X74577Y24879D1*
X74338Y24639D1*
X74673D1*
X80839Y25142D2*
Y24783D1*
X80863Y24711D1*
X80911Y24664D1*
X80983Y24639D1*
X81031D1*
X81102Y24664D1*
X81150Y24711D1*
X81174Y24783D1*
Y25142D1*
X81353Y25022D2*
Y25046D1*
X81377Y25094D1*
X81400Y25117D1*
X81449Y25141D1*
X81544D1*
X81592Y25117D1*
X81615Y25094D1*
X81640Y25046D1*
Y24998D1*
X81615Y24950D1*
X81568Y24879D1*
X81329Y24639D1*
X81664D1*
X81866Y25141D2*
X82129D1*
X81985Y24950D1*
X82057D1*
X82105Y24926D1*
X82129Y24902D1*
X82153Y24831D1*
Y24783D1*
X82129Y24711D1*
X82081Y24663D1*
X82009Y24639D1*
X81937D1*
X81866Y24663D1*
X81842Y24687D1*
X81818Y24735D1*
X88308Y25142D2*
Y24783D1*
X88331Y24711D1*
X88380Y24664D1*
X88451Y24639D1*
X88499D1*
X88571Y24664D1*
X88619Y24711D1*
X88643Y24783D1*
Y25142D1*
X88821Y25022D2*
Y25046D1*
X88845Y25094D1*
X88869Y25117D1*
X88917Y25141D1*
X89013D1*
X89060Y25117D1*
X89084Y25094D1*
X89108Y25046D1*
Y24998D1*
X89084Y24950D1*
X89036Y24879D1*
X88797Y24639D1*
X89132D1*
X89526D2*
Y25141D1*
X89286Y24807D1*
X89645D1*
X6119Y17661D2*
Y17303D1*
X6143Y17231D1*
X6191Y17183D1*
X6262Y17159D1*
X6310D1*
X6382Y17183D1*
X6430Y17231D1*
X6454Y17303D1*
Y17661D1*
X6632Y17541D2*
Y17565D1*
X6656Y17613D1*
X6680Y17637D1*
X6728Y17661D1*
X6824D1*
X6871Y17637D1*
X6895Y17613D1*
X6919Y17565D1*
Y17518D1*
X6895Y17470D1*
X6847Y17398D1*
X6608Y17159D1*
X6943D1*
X7384Y17661D2*
X7146D1*
X7122Y17446D1*
X7146Y17470D1*
X7217Y17494D1*
X7289D1*
X7361Y17470D1*
X7409Y17422D1*
X7432Y17350D1*
Y17303D1*
X7409Y17231D1*
X7361Y17183D1*
X7289Y17159D1*
X7217D1*
X7146Y17183D1*
X7122Y17207D1*
X7097Y17255D1*
X13529Y17661D2*
Y17303D1*
X13552Y17231D1*
X13600Y17183D1*
X13672Y17159D1*
X13720D1*
X13792Y17183D1*
X13840Y17231D1*
X13864Y17303D1*
Y17661D1*
X14042Y17541D2*
Y17565D1*
X14066Y17613D1*
X14090Y17637D1*
X14138Y17661D1*
X14233D1*
X14281Y17637D1*
X14305Y17613D1*
X14329Y17565D1*
Y17518D1*
X14305Y17470D1*
X14257Y17398D1*
X14018Y17159D1*
X14353D1*
X14794Y17590D2*
X14770Y17637D1*
X14698Y17661D1*
X14651D1*
X14579Y17637D1*
X14531Y17565D1*
X14507Y17446D1*
Y17326D1*
X14531Y17231D1*
X14579Y17183D1*
X14651Y17159D1*
X14675D1*
X14746Y17183D1*
X14794Y17231D1*
X14818Y17303D1*
Y17326D1*
X14794Y17398D1*
X14746Y17446D1*
X14675Y17470D1*
X14651D1*
X14579Y17446D1*
X14531Y17398D1*
X14507Y17326D1*
X20997Y17661D2*
Y17303D1*
X21021Y17231D1*
X21069Y17183D1*
X21140Y17159D1*
X21188D1*
X21260Y17183D1*
X21308Y17231D1*
X21332Y17303D1*
Y17661D1*
X21510Y17541D2*
Y17565D1*
X21534Y17613D1*
X21558Y17637D1*
X21606Y17661D1*
X21702D1*
X21749Y17637D1*
X21773Y17613D1*
X21797Y17565D1*
Y17518D1*
X21773Y17470D1*
X21725Y17398D1*
X21486Y17159D1*
X21821D1*
X22071D2*
X22310Y17661D1*
X21975D1*
X28477D2*
Y17303D1*
X28501Y17231D1*
X28549Y17183D1*
X28621Y17159D1*
X28669D1*
X28740Y17183D1*
X28789Y17231D1*
X28812Y17303D1*
Y17661D1*
X28991Y17541D2*
Y17565D1*
X29015Y17613D1*
X29039Y17637D1*
X29087Y17661D1*
X29182D1*
X29230Y17637D1*
X29254Y17613D1*
X29278Y17565D1*
Y17518D1*
X29254Y17470D1*
X29206Y17398D1*
X28967Y17159D1*
X29302D1*
X29575Y17661D2*
X29504Y17637D1*
X29480Y17590D1*
Y17541D1*
X29504Y17494D1*
X29552Y17470D1*
X29647Y17446D1*
X29719Y17422D1*
X29767Y17374D1*
X29790Y17326D1*
Y17255D1*
X29767Y17207D1*
X29743Y17183D1*
X29671Y17159D1*
X29575D1*
X29504Y17183D1*
X29480Y17207D1*
X29456Y17255D1*
Y17326D1*
X29480Y17374D1*
X29528Y17422D1*
X29599Y17446D1*
X29695Y17470D1*
X29743Y17494D1*
X29767Y17541D1*
Y17590D1*
X29743Y17637D1*
X29671Y17661D1*
X29575D1*
X35969D2*
Y17303D1*
X35993Y17231D1*
X36041Y17183D1*
X36113Y17159D1*
X36160D1*
X36232Y17183D1*
X36280Y17231D1*
X36304Y17303D1*
Y17661D1*
X36483Y17541D2*
Y17565D1*
X36507Y17613D1*
X36530Y17637D1*
X36579Y17661D1*
X36674D1*
X36722Y17637D1*
X36745Y17613D1*
X36770Y17565D1*
Y17518D1*
X36745Y17470D1*
X36698Y17398D1*
X36459Y17159D1*
X36794D1*
X37259Y17494D2*
X37235Y17422D1*
X37187Y17374D1*
X37115Y17350D1*
X37092D1*
X37020Y17374D1*
X36972Y17422D1*
X36948Y17494D1*
Y17518D1*
X36972Y17590D1*
X37020Y17637D1*
X37092Y17661D1*
X37115D1*
X37187Y17637D1*
X37235Y17590D1*
X37259Y17494D1*
Y17374D1*
X37235Y17255D1*
X37187Y17183D1*
X37115Y17159D1*
X37068D1*
X36996Y17183D1*
X36972Y17231D1*
X43438Y17661D2*
Y17303D1*
X43461Y17231D1*
X43510Y17183D1*
X43581Y17159D1*
X43629D1*
X43701Y17183D1*
X43749Y17231D1*
X43773Y17303D1*
Y17661D1*
X43975D2*
X44238D1*
X44094Y17470D1*
X44166D1*
X44214Y17446D1*
X44238Y17422D1*
X44262Y17350D1*
Y17303D1*
X44238Y17231D1*
X44190Y17183D1*
X44118Y17159D1*
X44046D1*
X43975Y17183D1*
X43951Y17207D1*
X43927Y17255D1*
X44560Y17661D2*
X44488Y17637D1*
X44440Y17565D1*
X44416Y17446D1*
Y17374D1*
X44440Y17255D1*
X44488Y17183D1*
X44560Y17159D1*
X44608D1*
X44679Y17183D1*
X44727Y17255D1*
X44751Y17374D1*
Y17446D1*
X44727Y17565D1*
X44679Y17637D1*
X44608Y17661D1*
X44560D1*
X44727Y17565D2*
X44440Y17255D1*
X51026Y17661D2*
Y17303D1*
X51049Y17231D1*
X51097Y17183D1*
X51169Y17159D1*
X51217D1*
X51289Y17183D1*
X51337Y17231D1*
X51360Y17303D1*
Y17661D1*
X51563D2*
X51825D1*
X51682Y17470D1*
X51754D1*
X51802Y17446D1*
X51825Y17422D1*
X51850Y17350D1*
Y17303D1*
X51825Y17231D1*
X51778Y17183D1*
X51706Y17159D1*
X51634D1*
X51563Y17183D1*
X51539Y17207D1*
X51515Y17255D1*
X52004Y17565D2*
X52052Y17590D1*
X52124Y17661D1*
Y17159D1*
X58398Y17661D2*
Y17303D1*
X58422Y17231D1*
X58470Y17183D1*
X58542Y17159D1*
X58590D1*
X58661Y17183D1*
X58709Y17231D1*
X58733Y17303D1*
Y17661D1*
X58936D2*
X59198D1*
X59055Y17470D1*
X59127D1*
X59175Y17446D1*
X59198Y17422D1*
X59223Y17350D1*
Y17303D1*
X59198Y17231D1*
X59151Y17183D1*
X59079Y17159D1*
X59007D1*
X58936Y17183D1*
X58912Y17207D1*
X58888Y17255D1*
X59401Y17541D2*
Y17565D1*
X59425Y17613D1*
X59449Y17637D1*
X59497Y17661D1*
X59593D1*
X59640Y17637D1*
X59664Y17613D1*
X59688Y17565D1*
Y17518D1*
X59664Y17470D1*
X59616Y17398D1*
X59377Y17159D1*
X59712D1*
X65879Y17661D2*
Y17303D1*
X65902Y17231D1*
X65950Y17183D1*
X66022Y17159D1*
X66070D1*
X66142Y17183D1*
X66190Y17231D1*
X66214Y17303D1*
Y17661D1*
X66416D2*
X66679D1*
X66535Y17470D1*
X66607D1*
X66655Y17446D1*
X66679Y17422D1*
X66703Y17350D1*
Y17303D1*
X66679Y17231D1*
X66631Y17183D1*
X66559Y17159D1*
X66487D1*
X66416Y17183D1*
X66392Y17207D1*
X66368Y17255D1*
X66905Y17661D2*
X67168D1*
X67025Y17470D1*
X67097D1*
X67144Y17446D1*
X67168Y17422D1*
X67192Y17350D1*
Y17303D1*
X67168Y17231D1*
X67120Y17183D1*
X67049Y17159D1*
X66977D1*
X66905Y17183D1*
X66882Y17207D1*
X66857Y17255D1*
X73347Y17661D2*
Y17303D1*
X73371Y17231D1*
X73419Y17183D1*
X73491Y17159D1*
X73538D1*
X73610Y17183D1*
X73658Y17231D1*
X73682Y17303D1*
Y17661D1*
X73884D2*
X74147D1*
X74004Y17470D1*
X74076D1*
X74123Y17446D1*
X74147Y17422D1*
X74171Y17350D1*
Y17303D1*
X74147Y17231D1*
X74099Y17183D1*
X74028Y17159D1*
X73956D1*
X73884Y17183D1*
X73861Y17207D1*
X73836Y17255D1*
X74565Y17159D2*
Y17661D1*
X74326Y17326D1*
X74684D1*
X80839Y17661D2*
Y17303D1*
X80863Y17231D1*
X80911Y17183D1*
X80983Y17159D1*
X81031D1*
X81102Y17183D1*
X81150Y17231D1*
X81174Y17303D1*
Y17661D1*
X81377D2*
X81639D1*
X81496Y17470D1*
X81568D1*
X81615Y17446D1*
X81639Y17422D1*
X81664Y17350D1*
Y17303D1*
X81639Y17231D1*
X81592Y17183D1*
X81520Y17159D1*
X81448D1*
X81377Y17183D1*
X81353Y17207D1*
X81329Y17255D1*
X82105Y17661D2*
X81866D1*
X81842Y17446D1*
X81866Y17470D1*
X81938Y17494D1*
X82009D1*
X82081Y17470D1*
X82129Y17422D1*
X82153Y17350D1*
Y17303D1*
X82129Y17231D1*
X82081Y17183D1*
X82009Y17159D1*
X81938D1*
X81866Y17183D1*
X81842Y17207D1*
X81818Y17255D1*
X88332Y17661D2*
Y17303D1*
X88356Y17231D1*
X88404Y17183D1*
X88475Y17159D1*
X88523D1*
X88595Y17183D1*
X88643Y17231D1*
X88667Y17303D1*
Y17661D1*
X88869D2*
X89132D1*
X88989Y17470D1*
X89060D1*
X89108Y17446D1*
X89132Y17422D1*
X89156Y17350D1*
Y17303D1*
X89132Y17231D1*
X89084Y17183D1*
X89012Y17159D1*
X88940D1*
X88869Y17183D1*
X88845Y17207D1*
X88821Y17255D1*
X89597Y17590D2*
X89573Y17637D1*
X89502Y17661D1*
X89454D1*
X89382Y17637D1*
X89334Y17565D1*
X89310Y17446D1*
Y17326D1*
X89334Y17231D1*
X89382Y17183D1*
X89454Y17159D1*
X89478D1*
X89549Y17183D1*
X89597Y17231D1*
X89621Y17303D1*
Y17326D1*
X89597Y17398D1*
X89549Y17446D1*
X89478Y17470D1*
X89454D1*
X89382Y17446D1*
X89334Y17398D1*
X89310Y17326D1*
X6119Y10181D2*
Y9822D1*
X6143Y9750D1*
X6191Y9703D1*
X6262Y9679D1*
X6310D1*
X6382Y9703D1*
X6430Y9750D1*
X6454Y9822D1*
Y10181D1*
X6656Y10180D2*
X6919D1*
X6776Y9989D1*
X6847D1*
X6895Y9965D1*
X6919Y9942D1*
X6943Y9870D1*
Y9822D1*
X6919Y9750D1*
X6871Y9702D1*
X6799Y9679D1*
X6728D1*
X6656Y9702D1*
X6632Y9727D1*
X6608Y9774D1*
X7193Y9679D2*
X7432Y10180D1*
X7097D1*
X13517Y10181D2*
Y9822D1*
X13540Y9750D1*
X13589Y9703D1*
X13660Y9679D1*
X13708D1*
X13780Y9703D1*
X13828Y9750D1*
X13852Y9822D1*
Y10181D1*
X14054Y10180D2*
X14317D1*
X14174Y9989D1*
X14245D1*
X14293Y9965D1*
X14317Y9942D1*
X14341Y9870D1*
Y9822D1*
X14317Y9750D1*
X14269Y9702D1*
X14197Y9679D1*
X14125D1*
X14054Y9702D1*
X14030Y9727D1*
X14006Y9774D1*
X14615Y10180D2*
X14543Y10157D1*
X14519Y10109D1*
Y10061D1*
X14543Y10014D1*
X14591Y9989D1*
X14687Y9965D1*
X14758Y9942D1*
X14806Y9894D1*
X14830Y9846D1*
Y9774D1*
X14806Y9727D1*
X14782Y9702D1*
X14710Y9679D1*
X14615D1*
X14543Y9702D1*
X14519Y9727D1*
X14495Y9774D1*
Y9846D1*
X14519Y9894D1*
X14567Y9942D1*
X14639Y9965D1*
X14734Y9989D1*
X14782Y10014D1*
X14806Y10061D1*
Y10109D1*
X14782Y10157D1*
X14710Y10180D1*
X14615D1*
X21009Y10181D2*
Y9822D1*
X21032Y9750D1*
X21080Y9703D1*
X21152Y9679D1*
X21200D1*
X21272Y9703D1*
X21320Y9750D1*
X21344Y9822D1*
Y10181D1*
X21546Y10180D2*
X21809D1*
X21665Y9989D1*
X21737D1*
X21785Y9965D1*
X21809Y9942D1*
X21833Y9870D1*
Y9822D1*
X21809Y9750D1*
X21761Y9702D1*
X21689Y9679D1*
X21617D1*
X21546Y9702D1*
X21522Y9727D1*
X21498Y9774D1*
X22298Y10014D2*
X22274Y9942D1*
X22227Y9894D1*
X22155Y9870D1*
X22131D1*
X22059Y9894D1*
X22012Y9942D1*
X21987Y10014D1*
Y10037D1*
X22012Y10109D1*
X22059Y10157D1*
X22131Y10180D1*
X22155D1*
X22227Y10157D1*
X22274Y10109D1*
X22298Y10014D1*
Y9894D1*
X22274Y9774D1*
X22227Y9702D1*
X22155Y9679D1*
X22107D1*
X22035Y9702D1*
X22012Y9750D1*
X28465Y10181D2*
Y9822D1*
X28489Y9750D1*
X28537Y9703D1*
X28609Y9679D1*
X28656D1*
X28728Y9703D1*
X28776Y9750D1*
X28800Y9822D1*
Y10181D1*
X29194Y9679D2*
Y10180D1*
X28955Y9846D1*
X29313D1*
X29611Y10180D2*
X29539Y10157D1*
X29491Y10085D1*
X29468Y9965D1*
Y9894D1*
X29491Y9774D1*
X29539Y9702D1*
X29611Y9679D1*
X29659D1*
X29731Y9702D1*
X29778Y9774D1*
X29803Y9894D1*
Y9965D1*
X29778Y10085D1*
X29731Y10157D1*
X29659Y10180D1*
X29611D1*
X29778Y10085D2*
X29491Y9774D1*
X36053Y10181D2*
Y9822D1*
X36077Y9750D1*
X36125Y9703D1*
X36197Y9679D1*
X36244D1*
X36316Y9703D1*
X36364Y9750D1*
X36388Y9822D1*
Y10181D1*
X36782Y9679D2*
Y10180D1*
X36542Y9846D1*
X36901D1*
X37055Y10085D2*
X37103Y10109D1*
X37175Y10180D1*
Y9679D1*
X47166Y10181D2*
Y9822D1*
X47190Y9750D1*
X47238Y9703D1*
X47310Y9679D1*
X47357D1*
X47429Y9703D1*
X47477Y9750D1*
X47501Y9822D1*
Y10181D1*
X47895Y9679D2*
Y10180D1*
X47655Y9846D1*
X48014D1*
X48216Y10180D2*
X48479D1*
X48336Y9989D1*
X48408D1*
X48455Y9965D1*
X48479Y9942D1*
X48503Y9870D1*
Y9822D1*
X48479Y9750D1*
X48431Y9702D1*
X48360Y9679D1*
X48288D1*
X48216Y9702D1*
X48193Y9727D1*
X48168Y9774D1*
X58375Y10181D2*
Y9822D1*
X58398Y9750D1*
X58446Y9703D1*
X58518Y9679D1*
X58566D1*
X58638Y9703D1*
X58686Y9750D1*
X58709Y9822D1*
Y10181D1*
X59103Y9679D2*
Y10180D1*
X58864Y9846D1*
X59223D1*
X59616Y9679D2*
Y10180D1*
X59377Y9846D1*
X59736D1*
X65867Y10181D2*
Y9822D1*
X65891Y9750D1*
X65939Y9703D1*
X66010Y9679D1*
X66058D1*
X66130Y9703D1*
X66178Y9750D1*
X66202Y9822D1*
Y10181D1*
X66595Y9679D2*
Y10180D1*
X66356Y9846D1*
X66715D1*
X67156Y10180D2*
X66917D1*
X66893Y9965D1*
X66917Y9989D1*
X66989Y10014D1*
X67060D1*
X67132Y9989D1*
X67180Y9942D1*
X67204Y9870D1*
Y9822D1*
X67180Y9750D1*
X67132Y9702D1*
X67060Y9679D1*
X66989D1*
X66917Y9702D1*
X66893Y9727D1*
X66869Y9774D1*
X73359Y10181D2*
Y9822D1*
X73383Y9750D1*
X73431Y9703D1*
X73503Y9679D1*
X73550D1*
X73622Y9703D1*
X73670Y9750D1*
X73694Y9822D1*
Y10181D1*
X74088Y9679D2*
Y10180D1*
X73849Y9846D1*
X74207D1*
X74648Y10109D2*
X74625Y10157D1*
X74553Y10180D1*
X74505D1*
X74433Y10157D1*
X74385Y10085D1*
X74362Y9965D1*
Y9846D1*
X74385Y9750D1*
X74433Y9702D1*
X74505Y9679D1*
X74529D1*
X74600Y9702D1*
X74648Y9750D1*
X74672Y9822D1*
Y9846D1*
X74648Y9918D1*
X74600Y9965D1*
X74529Y9989D1*
X74505D1*
X74433Y9965D1*
X74385Y9918D1*
X74362Y9846D1*
X80827Y10181D2*
Y9822D1*
X80851Y9750D1*
X80899Y9703D1*
X80971Y9679D1*
X81019D1*
X81090Y9703D1*
X81139Y9750D1*
X81162Y9822D1*
Y10181D1*
X81556Y9679D2*
Y10180D1*
X81317Y9846D1*
X81675D1*
X81925Y9679D2*
X82165Y10180D1*
X81830D1*
X88308Y10181D2*
Y9822D1*
X88332Y9750D1*
X88380Y9703D1*
X88452Y9679D1*
X88499D1*
X88571Y9703D1*
X88619Y9750D1*
X88643Y9822D1*
Y10181D1*
X89037Y9679D2*
Y10180D1*
X88797Y9846D1*
X89156D1*
X89430Y10180D2*
X89358Y10157D1*
X89334Y10109D1*
Y10061D1*
X89358Y10014D1*
X89406Y9989D1*
X89502Y9965D1*
X89573Y9942D1*
X89621Y9894D1*
X89645Y9846D1*
Y9774D1*
X89621Y9727D1*
X89597Y9702D1*
X89525Y9679D1*
X89430D1*
X89358Y9702D1*
X89334Y9727D1*
X89310Y9774D1*
Y9846D1*
X89334Y9894D1*
X89382Y9942D1*
X89454Y9965D1*
X89549Y9989D1*
X89597Y10014D1*
X89621Y10061D1*
Y10109D1*
X89597Y10157D1*
X89525Y10180D1*
X89430D1*
X36892Y10181D2*
Y9822D1*
X36916Y9750D1*
X36964Y9703D1*
X37036Y9679D1*
X37084D1*
X37156Y9703D1*
X37204Y9750D1*
X37227Y9822D1*
Y10181D1*
X37621Y9679D2*
Y10180D1*
X37382Y9846D1*
X37740D1*
X38206Y10014D2*
X38182Y9942D1*
X38134Y9894D1*
X38062Y9870D1*
X38039D1*
X37967Y9894D1*
X37919Y9942D1*
X37895Y10014D1*
Y10037D1*
X37919Y10109D1*
X37967Y10157D1*
X38039Y10180D1*
X38062D1*
X38134Y10157D1*
X38182Y10109D1*
X38206Y10014D1*
Y9894D1*
X38182Y9774D1*
X38134Y9702D1*
X38062Y9679D1*
X38015D1*
X37943Y9702D1*
X37919Y9750D1*
X57463Y10181D2*
Y9822D1*
X57487Y9750D1*
X57535Y9703D1*
X57607Y9679D1*
X57655D1*
X57726Y9703D1*
X57774Y9750D1*
X57798Y9822D1*
Y10181D1*
X58239Y10180D2*
X58001D1*
X57977Y9965D1*
X58001Y9989D1*
X58073Y10014D1*
X58144D1*
X58216Y9989D1*
X58264Y9942D1*
X58288Y9870D1*
Y9822D1*
X58264Y9750D1*
X58216Y9702D1*
X58144Y9679D1*
X58073D1*
X58001Y9702D1*
X57977Y9727D1*
X57953Y9774D1*
X58586Y10180D2*
X58514Y10157D1*
X58466Y10085D1*
X58442Y9965D1*
Y9894D1*
X58466Y9774D1*
X58514Y9702D1*
X58586Y9679D1*
X58633D1*
X58705Y9702D1*
X58753Y9774D1*
X58777Y9894D1*
Y9965D1*
X58753Y10085D1*
X58705Y10157D1*
X58633Y10180D1*
X58586D1*
X58753Y10085D2*
X58466Y9774D1*
X26714Y10181D2*
Y9822D1*
X26738Y9750D1*
X26786Y9703D1*
X26858Y9679D1*
X26906D1*
X26978Y9703D1*
X27026Y9750D1*
X27049Y9822D1*
Y10181D1*
X27491Y10180D2*
X27252D1*
X27228Y9965D1*
X27252Y9989D1*
X27324Y10014D1*
X27395D1*
X27467Y9989D1*
X27515Y9942D1*
X27539Y9870D1*
Y9822D1*
X27515Y9750D1*
X27467Y9702D1*
X27395Y9679D1*
X27324D1*
X27252Y9702D1*
X27228Y9727D1*
X27204Y9774D1*
X27693Y10085D2*
X27741Y10109D1*
X27813Y10180D1*
Y9679D1*
X17257Y10181D2*
Y9822D1*
X17280Y9750D1*
X17328Y9703D1*
X17400Y9679D1*
X17448D1*
X17520Y9703D1*
X17568Y9750D1*
X17592Y9822D1*
Y10181D1*
X18033Y10180D2*
X17794D1*
X17770Y9965D1*
X17794Y9989D1*
X17866Y10014D1*
X17937D1*
X18009Y9989D1*
X18057Y9942D1*
X18081Y9870D1*
Y9822D1*
X18057Y9750D1*
X18009Y9702D1*
X17937Y9679D1*
X17866D1*
X17794Y9702D1*
X17770Y9727D1*
X17746Y9774D1*
X18260Y10061D2*
Y10085D1*
X18283Y10133D1*
X18307Y10157D1*
X18355Y10180D1*
X18451D1*
X18498Y10157D1*
X18522Y10133D1*
X18546Y10085D1*
Y10037D1*
X18522Y9989D1*
X18475Y9918D1*
X18235Y9679D1*
X18570D1*
X7906Y10181D2*
Y9822D1*
X7930Y9750D1*
X7978Y9703D1*
X8050Y9679D1*
X8097D1*
X8169Y9703D1*
X8217Y9750D1*
X8241Y9822D1*
Y10181D1*
X8682Y10180D2*
X8444D1*
X8420Y9965D1*
X8444Y9989D1*
X8515Y10014D1*
X8587D1*
X8659Y9989D1*
X8707Y9942D1*
X8730Y9870D1*
Y9822D1*
X8707Y9750D1*
X8659Y9702D1*
X8587Y9679D1*
X8515D1*
X8444Y9702D1*
X8420Y9727D1*
X8396Y9774D1*
X8933Y10180D2*
X9195D1*
X9052Y9989D1*
X9124D1*
X9172Y9965D1*
X9195Y9942D1*
X9220Y9870D1*
Y9822D1*
X9195Y9750D1*
X9148Y9702D1*
X9076Y9679D1*
X9004D1*
X8933Y9702D1*
X8909Y9727D1*
X8885Y9774D1*
X15457Y10150D2*
Y9791D1*
X15481Y9719D1*
X15529Y9671D1*
X15601Y9647D1*
X15649D1*
X15720Y9671D1*
X15768Y9719D1*
X15792Y9791D1*
Y10150D1*
X16233Y10149D2*
X15995D1*
X15971Y9934D1*
X15995Y9958D1*
X16067Y9982D1*
X16138D1*
X16210Y9958D1*
X16258Y9910D1*
X16282Y9838D1*
Y9791D1*
X16258Y9719D1*
X16210Y9671D1*
X16138Y9647D1*
X16067D1*
X15995Y9671D1*
X15971Y9695D1*
X15947Y9743D1*
X16675Y9647D2*
Y10149D1*
X16436Y9815D1*
X16795D1*
M02*
