<svg
  width="384mm"
  height="384mm"
  viewBox="0 0 384 384"
  style="stroke-width:0.01;stroke:#00F;fill:none"
  xmlns="http://www.w3.org/2000/svg" 
  xmlns:xlink="http://www.w3.org/1999/xlink">
  <defs>
    <g id="body">
      <rect x="0" y="0" width="233" height="81" rx="3" ry="3"/>
    </g>
    <!-- <g id="screws">
      <circle cx="21.5"  cy="21.5" r="1"/>
      <circle cx="21.5"  cy="59.5" r="1"/>
      <circle cx="211.5" cy="21.5" r="1"/>
      <circle cx="211.5" cy="59.5" r="1"/>
      <circle cx="116.5" cy="40.5" r="1"/>
    </g> -->
    <g id="plateholes">
      <g id="row0">
        <rect x="5"   y="5"  width="14" height="14"/>
        <rect x="24"  y="5"  width="14" height="14"/>
        <rect x="43"  y="5"  width="14" height="14"/>
        <rect x="62"  y="5"  width="14" height="14"/>
        <rect x="81"  y="5"  width="14" height="14"/>
        <rect x="100" y="5"  width="14" height="14"/>
        <rect x="119" y="5"  width="14" height="14"/>
        <rect x="138" y="5"  width="14" height="14"/>
        <rect x="157" y="5"  width="14" height="14"/>
        <rect x="176" y="5"  width="14" height="14"/>
        <rect x="195" y="5"  width="14" height="14"/>
        <rect x="214" y="5"  width="14" height="14"/>
      </g>
      <g id="row1">
        <rect x="5"   y="24" width="14" height="14"/>
        <rect x="24"  y="24" width="14" height="14"/>
        <rect x="43"  y="24" width="14" height="14"/>
        <rect x="62"  y="24" width="14" height="14"/>
        <rect x="81"  y="24" width="14" height="14"/>
        <rect x="100" y="24" width="14" height="14"/>
        <rect x="119" y="24" width="14" height="14"/>
        <rect x="138" y="24" width="14" height="14"/>
        <rect x="157" y="24" width="14" height="14"/>
        <rect x="176" y="24" width="14" height="14"/>
        <rect x="195" y="24" width="14" height="14"/>
        <rect x="214" y="24" width="14" height="14"/>
      </g>
      <g id="row2">
        <rect x="5"   y="43" width="14" height="14"/>
        <rect x="24"  y="43" width="14" height="14"/>
        <rect x="43"  y="43" width="14" height="14"/>
        <rect x="62"  y="43" width="14" height="14"/>
        <rect x="81"  y="43" width="14" height="14"/>
        <rect x="100" y="43" width="14" height="14"/>
        <rect x="119" y="43" width="14" height="14"/>
        <rect x="138" y="43" width="14" height="14"/>
        <rect x="157" y="43" width="14" height="14"/>
        <rect x="176" y="43" width="14" height="14"/>
        <rect x="195" y="43" width="14" height="14"/>
        <rect x="214" y="43" width="14" height="14"/>
      </g>
      <g id="row3">
        <rect x="5"   y="62" width="14" height="14"/>
        <rect x="24"  y="62" width="14" height="14"/>
        <rect x="43"  y="62" width="14" height="14"/>
        <rect x="62"  y="62" width="14" height="14"/>
        <rect x="81"  y="62" width="14" height="14"/>
        <rect x="138" y="62" width="14" height="14"/>
        <rect x="157" y="62" width="14" height="14"/>
        <rect x="176" y="62" width="14" height="14"/>
        <rect x="195" y="62" width="14" height="14"/>
        <rect x="214" y="62" width="14" height="14"/>
        <g id="spacebar">
          <rect x="109.5" y="62" width="14" height="14"/>
          <rect x="103.037" y="62.775" width="3.05" height="13.46"/>
          <rect x="126.913" y="62.775" width="3.05" height="13.46"/>
        </g>
      </g>
    </g>
    <g id="lplateholes">
      <g id="row0">
        <rect x="5"   y="4"  width="14" height="16"/>
        <rect x="24"  y="4"  width="14" height="16"/>
        <rect x="43"  y="4"  width="14" height="16"/>
        <rect x="62"  y="4"  width="14" height="16"/>
        <rect x="81"  y="4"  width="14" height="16"/>
        <rect x="100" y="4"  width="14" height="16"/>
        <rect x="119" y="4"  width="14" height="16"/>
        <rect x="138" y="4"  width="14" height="16"/>
        <rect x="157" y="4"  width="14" height="16"/>
        <rect x="176" y="4"  width="14" height="16"/>
        <rect x="195" y="4"  width="14" height="16"/>
        <rect x="214" y="4"  width="14" height="16"/>
      </g>
      <g id="row1">
        <rect x="5"   y="23" width="14" height="16"/>
        <rect x="24"  y="23" width="14" height="16"/>
        <rect x="43"  y="23" width="14" height="16"/>
        <rect x="62"  y="23" width="14" height="16"/>
        <rect x="81"  y="23" width="14" height="16"/>
        <rect x="100" y="23" width="14" height="16"/>
        <rect x="119" y="23" width="14" height="16"/>
        <rect x="138" y="23" width="14" height="16"/>
        <rect x="157" y="23" width="14" height="16"/>
        <rect x="176" y="23" width="14" height="16"/>
        <rect x="195" y="23" width="14" height="16"/>
        <rect x="214" y="23" width="14" height="16"/>
      </g>
      <g id="row2">
        <rect x="5"   y="42" width="14" height="16"/>
        <rect x="24"  y="42" width="14" height="16"/>
        <rect x="43"  y="42" width="14" height="16"/>
        <rect x="62"  y="42" width="14" height="16"/>
        <rect x="81"  y="42" width="14" height="16"/>
        <rect x="100" y="42" width="14" height="16"/>
        <rect x="119" y="42" width="14" height="16"/>
        <rect x="138" y="42" width="14" height="16"/>
        <rect x="157" y="42" width="14" height="16"/>
        <rect x="176" y="42" width="14" height="16"/>
        <rect x="195" y="42" width="14" height="16"/>
        <rect x="214" y="42" width="14" height="16"/>
      </g>
      <g id="row3">
        <rect x="5"   y="61" width="14" height="16"/>
        <rect x="24"  y="61" width="14" height="16"/>
        <rect x="43"  y="61" width="14" height="16"/>
        <rect x="62"  y="61" width="14" height="16"/>
        <rect x="81"  y="61" width="14" height="16"/>
        <rect x="138" y="61" width="14" height="16"/>
        <rect x="157" y="61" width="14" height="16"/>
        <rect x="176" y="61" width="14" height="16"/>
        <rect x="195" y="61" width="14" height="16"/>
        <rect x="214" y="61" width="14" height="16"/>
        <g id="spacebar">
          <rect x="109.5" y="61" width="14" height="16"/>
          <rect x="103.037" y="61.775" width="3.05" height="15.46"/>
          <rect x="126.913" y="61.775" width="3.05" height="15.46"/>
        </g>
      </g>
    </g>
    <g id="top1">
      <use xlink:href="#body"/>
      <!-- <use xlink:href="#screws"/> -->
      <use xlink:href="#plateholes"/>
    </g>
    <g id="top2">
      <use xlink:href="#body"/>
      <!-- <use xlink:href="#screws"/> -->
      <use xlink:href="#lplateholes"/>
    </g>
    <g id="middle">
      <use xlink:href="#body"/>
      <rect x="4" y="4" width="225" height="73" rx="1" ry="1"/>
    </g>
    <g id="bottom">
      <use xlink:href="#body"/>
      <!-- <use xlink:href="#screws"/> -->
    </g>
    <g id="mid">
      <polyline points="225,0 229,0 229,77 0,77 0,73"/>
    </g>
    <g id="8midp">
      <use xlink:href="#mid"/>
      <use xlink:href="#mid" transform="translate(4,4)"/>
      <use xlink:href="#mid" transform="translate(8,8)"/>
      <use xlink:href="#mid" transform="translate(12,12)"/>
      <use xlink:href="#mid" transform="translate(16,16)"/>
      <use xlink:href="#mid" transform="translate(20,20)"/>
      <use xlink:href="#mid" transform="translate(24,24)"/>
      <use xlink:href="#mid" transform="translate(28,28)"/>
    </g>
    <g id="midclose">
      <polyline points="0,73 225,73, 225,0" />
    </g>
    <g id="8mid">
      <use xlink:href="#midclose"/>
      <use xlink:href="#8midp"/>
    </g>
    <g id="10mid">
      <use xlink:href="#midclose"/>
      <use xlink:href="#8midp"/>
      <use xlink:href="#mid" transform="translate(32,32)"/>
      <use xlink:href="#mid" transform="translate(36,36)"/>
    </g>
  </defs>

  <rect x="6" y="20" width="12" height="4"/>

  <use xlink:href="#middle" transform="translate(10, 10)"/>
  <use xlink:href="#middle" transform="translate(10, 101)"/>
  <use xlink:href="#middle" transform="translate(10, 192)"/>
  <use xlink:href="#middle" transform="translate(10, 283)"/>
  <use xlink:href="#top2" transform="translate(334, 10) rotate(90)"/>
</svg>
