<svg width="384mm" height="384mm" viewBox="0 0 384 384"
  xmlns="http://www.w3.org/2000/svg" 
  xmlns:xlink="http://www.w3.org/1999/xlink">
  <g id="margined" transform="translate(20 20)">
    <g id="base" style="stroke-width:0.01;stroke:#00F;fill:#888">
      <g id="body">
        <rect x="0" y="0" width="233" height="81" rx="1.5" ry="1.5" style="fill:#ddd"/>
      </g>
      <g id="screws">
        <circle cx="21.5" cy="21.5" r="1.5"/>
        <circle cx="21.5" cy="59.5" r="1.5"/>
        <circle cx="116.5" cy="40.5" r="1.5"/>
        <circle cx="211.5" cy="21.5" r="1.5"/>
        <circle cx="211.5" cy="59.5" r="1.5"/>
      </g>
      <g id="row0">
        <rect x="5"   y="4"  width="14" height="16"/>
        <rect x="24"  y="4"  width="14" height="16"/>
        <rect x="43"  y="4"  width="14" height="16"/>
        <rect x="62"  y="4"  width="14" height="16"/>
        <rect x="81"  y="4"  width="14" height="16"/>
        <rect x="100" y="4"  width="14" height="16"/>
        <rect x="119" y="4"  width="14" height="16"/>
        <rect x="138" y="4"  width="14" height="16"/>
        <rect x="157" y="4"  width="14" height="16"/>
        <rect x="176" y="4"  width="14" height="16"/>
        <rect x="195" y="4"  width="14" height="16"/>
        <rect x="214" y="4"  width="14" height="16"/>
      </g>
      <g id="row1">
        <rect x="5"   y="23" width="14" height="16"/>
        <rect x="24"  y="23" width="14" height="16"/>
        <rect x="43"  y="23" width="14" height="16"/>
        <rect x="62"  y="23" width="14" height="16"/>
        <rect x="81"  y="23" width="14" height="16"/>
        <rect x="100" y="23" width="14" height="16"/>
        <rect x="119" y="23" width="14" height="16"/>
        <rect x="138" y="23" width="14" height="16"/>
        <rect x="157" y="23" width="14" height="16"/>
        <rect x="176" y="23" width="14" height="16"/>
        <rect x="195" y="23" width="14" height="16"/>
        <rect x="214" y="23" width="14" height="16"/>
      </g>
      <g id="row2">
        <rect x="5"   y="42" width="14" height="16"/>
        <rect x="24"  y="42" width="14" height="16"/>
        <rect x="43"  y="42" width="14" height="16"/>
        <rect x="62"  y="42" width="14" height="16"/>
        <rect x="81"  y="42" width="14" height="16"/>
        <rect x="100" y="42" width="14" height="16"/>
        <rect x="119" y="42" width="14" height="16"/>
        <rect x="138" y="42" width="14" height="16"/>
        <rect x="157" y="42" width="14" height="16"/>
        <rect x="176" y="42" width="14" height="16"/>
        <rect x="195" y="42" width="14" height="16"/>
        <rect x="214" y="42" width="14" height="16"/>
      </g>
      <g id="row3">
        <rect x="5"   y="61" width="14" height="16"/>
        <rect x="24"  y="61" width="14" height="16"/>
        <rect x="43"  y="61" width="14" height="16"/>
        <rect x="62"  y="61" width="14" height="16"/>
        <rect x="81"  y="61" width="14" height="16"/>
        <rect x="138" y="61" width="14" height="16"/>
        <rect x="157" y="61" width="14" height="16"/>
        <rect x="176" y="61" width="14" height="16"/>
        <rect x="195" y="61" width="14" height="16"/>
        <rect x="214" y="61" width="14" height="16"/>
        <g id="spacebar">
          <rect x="109.5" y="61" width="14" height="16"/>
          <rect x="103.037" y="61.775" width="3.05" height="15.46"/>
          <rect x="126.913" y="61.775" width="3.05" height="15.46"/>
        </g>
      </g>
    </g>
    <use xlink:href="#base" transform="translate(0, 106)"/>
    <use xlink:href="#base" transform="translate(0, 212)"/>
    <use xlink:href="#base" transform="translate(344, 0) rotate(90)"/>
  </g>
</svg>
